<svg width="45" height="31" viewBox="0 0 45 31" fill="none" xmlns="http://www.w3.org/2000/svg">
<path d="M45 1.54459V29.2533C45 30.0423 44.3514 30.691 43.5624 30.691H1.43754C0.648545 30.691 0 30.0423 0 29.2533V1.54459C0 0.755601 0.648545 0.113647 1.43754 0.113647H43.5624C44.3514 0.113647 45 0.755601 45 1.54459Z" fill="url(#paint0_linear_135_830)"/>
<g opacity="0.2">
<path d="M26.312 9.19019C26.2147 9.08077 26.154 8.98356 26.0324 9.03823C25.9108 9.0929 25.9108 9.17191 25.7831 9.07471C25.6555 8.9775 25.7102 8.86192 25.4245 8.75865C25.1387 8.65529 25.078 8.59456 24.7679 8.55202C24.4579 8.50948 24.233 8.46694 24.2147 8.46694C24.1965 8.46694 24.2816 8.52161 24.1601 8.58243C24.0385 8.64325 23.9412 8.65538 23.8197 8.57637C23.6981 8.49735 23.7042 8.47301 23.4975 8.49129C23.2908 8.50957 23.1693 8.55817 23.0781 8.5703C22.987 8.58243 23.0781 8.56424 22.9383 8.46694C22.7985 8.36965 22.8958 8.31498 22.6526 8.33317C22.4095 8.35145 22.3061 8.3627 22.2453 8.32966C22.1845 8.2967 22.2574 8.12645 22.0204 8.0535C21.7833 7.98056 21.7346 8.03531 21.6131 8.01703C21.4915 7.99884 21.4976 7.96843 21.1511 7.94408C20.8047 7.91974 20.8229 7.97449 20.5858 8.04744C20.3488 8.12039 20.288 8.12039 20.0691 8.10826C19.8503 8.09613 19.905 8.22981 19.7712 8.24809C19.6375 8.26629 19.4248 8.13261 19.4004 8.05359C19.3761 7.97458 19.5828 7.8895 19.4004 7.81655C19.2181 7.7436 18.8777 7.60377 18.8108 7.62811C18.7439 7.65246 18.7804 7.76188 18.6588 7.79221C18.5373 7.82262 18.3792 7.82262 18.1908 7.73754C18.0024 7.65246 17.9294 7.61036 17.7288 7.6253C17.5283 7.64024 17.4189 7.70106 17.2486 7.71319C17.0784 7.72532 16.9751 7.65237 17.0906 7.5977C17.2061 7.54304 17.352 7.37886 17.352 7.29984C17.352 7.22083 17.437 7.05058 17.2425 7.03239C17.048 7.0142 17.0116 7.14788 16.8292 7.03239C16.6468 6.9169 16.4098 6.91084 16.3429 6.94731C16.276 6.98379 16.276 7.04461 16.1605 7.0628C16.045 7.081 16.0876 7.18435 15.9477 7.22083C15.8079 7.2573 15.8262 7.14788 15.504 7.17829C15.1818 7.2087 14.8718 7.25124 14.7928 7.34238C14.7138 7.43352 14.8111 7.53688 14.6408 7.6159C14.4706 7.69491 14.0816 7.63409 14.033 7.70098C13.9844 7.76786 14.2457 7.99884 14.0694 8.1022C13.8931 8.20556 13.7837 8.02925 13.3765 8.1022C12.9692 8.17515 13.0178 8.16302 12.8659 8.25416C12.714 8.3453 12.6836 8.28457 12.5924 8.41219C12.5013 8.5398 12.2277 8.65538 12.0392 8.65538C11.8508 8.65538 11.7718 8.53989 11.5286 8.63719C11.2855 8.73448 11.322 8.80128 10.9389 8.77096C10.556 8.74055 10.398 8.74661 10.325 8.7953C10.2521 8.84391 10.2521 8.96555 10.0636 9.02021C9.8752 9.07488 9.58341 9.17218 9.51046 9.15398C9.43751 9.13579 9.18834 9.25734 9.0181 9.27554C8.84785 9.29382 8.75064 9.2816 8.69598 9.21472C8.64122 9.14783 8.58049 9.03234 8.66557 9.06882C8.75064 9.10529 8.82359 9.1539 8.97556 9.14783C9.12752 9.14177 9.29776 9.02021 9.26129 8.95333C9.22481 8.88644 9.25522 8.78924 8.95736 8.71629C8.6595 8.64334 8.53188 8.65547 8.30697 8.49138C8.08206 8.32728 8.39205 8.21786 7.80248 8.27859C7.21282 8.33941 7.05479 8.40015 6.81775 8.57645C6.58071 8.75276 6.53202 8.90473 6.28892 9.11742C6.04581 9.3302 6.13089 9.39094 5.82696 9.5429C5.52304 9.69486 5.47443 9.62191 5.3832 9.85289C5.29197 10.0839 5.23124 10.3513 5.41968 10.4C5.60811 10.4486 5.80262 10.3635 5.89991 10.3271C5.99721 10.2906 6.07016 10.3575 6.08228 10.4669C6.09441 10.5763 6.10048 10.7587 6.22212 10.7829C6.34367 10.8073 6.59899 10.6371 6.58686 10.4608C6.57474 10.2845 6.5322 10.163 6.65375 9.98666C6.7753 9.81035 6.85432 9.68273 6.98202 9.62191C7.10964 9.56109 7.28595 9.45176 7.21906 9.5915C7.15218 9.73134 7.03062 9.89543 7.1157 10.0353C7.20078 10.1751 7.39528 10.0778 7.44397 10.2176C7.49258 10.3575 7.37709 10.4912 7.34668 10.5398C7.31627 10.5884 7.41963 10.6493 7.27979 10.7466C7.13996 10.8438 7.04882 10.9471 6.89685 11.0626C6.74489 11.1781 6.29507 11.2571 6.19171 11.2329C6.08835 11.2085 5.91819 11.2329 5.90598 11.093C5.89385 10.9532 6.05794 10.8012 5.88778 10.7343C5.71754 10.6675 5.5291 10.7587 5.47443 10.9957C5.41968 11.2328 5.3346 11.2753 5.19485 11.3908C5.05502 11.5063 5.17051 11.8588 4.76331 11.9257C4.35602 11.9926 4.12505 11.8953 4.15546 12.0412C4.18587 12.1871 4.44119 12.0959 4.44726 12.3391C4.45332 12.5822 4.51414 12.6673 4.33783 12.7159C4.16152 12.7645 4.11898 12.6734 3.88194 12.7524C3.6449 12.8314 3.65703 13.1293 3.60843 13.2569C3.55982 13.3845 3.53548 13.5 3.69351 13.5548C3.85153 13.6094 4.10686 13.7067 4.29529 13.6277C4.48373 13.5487 4.59315 13.5366 4.6175 13.3907C4.64185 13.2448 4.70258 13.1536 4.83028 13.1293C4.9579 13.1049 5.04307 12.959 5.11593 12.874C5.18888 12.7889 5.11593 12.8193 5.30436 12.8254C5.4928 12.8314 5.66911 12.6308 5.73591 12.6855C5.80279 12.7402 6.00336 12.8558 6.13098 12.9773C6.25859 13.0989 6.4349 13.1353 6.40449 13.3177C6.37408 13.5001 6.36195 13.7116 6.48351 13.6575C6.60506 13.6034 6.56252 13.4393 6.64153 13.3603C6.72055 13.2812 6.82391 13.3542 6.81178 13.2144C6.79965 13.0745 6.59293 13.038 6.48351 12.9104C6.37408 12.7828 6.289 12.643 6.42269 12.6855C6.55637 12.7281 6.81169 12.8435 6.83603 12.9408C6.86038 13.0381 7.08529 13.2387 7.10955 13.4271C7.1339 13.6156 7.26758 13.7858 7.3284 13.6885C7.38922 13.5912 7.33446 13.5183 7.46823 13.494C7.60191 13.4697 7.55331 13.3725 7.62626 13.2448C7.69921 13.1171 7.89977 13.3056 7.97272 13.0685C8.04567 12.8314 7.88158 12.7498 8.06387 12.6204C8.24624 12.491 8.32525 12.4059 8.37992 12.5214C8.43459 12.6369 8.57442 12.7585 8.64131 12.6369C8.70819 12.5154 8.51976 12.4789 8.67778 12.3877C8.83581 12.2965 8.97564 12.1871 8.93311 12.3451C8.89057 12.5031 8.82975 12.6065 8.93917 12.7159C9.04859 12.8254 9.37071 12.8922 9.19449 12.9894C9.01818 13.0867 8.76295 13.032 8.52582 13.1353C8.28878 13.2387 8.2523 13.19 8.19148 13.3846C8.13066 13.5791 8.1246 13.6399 8.32517 13.6399C8.52573 13.6399 8.61696 13.5001 8.67163 13.6764C8.7263 13.8527 8.71417 14.2478 8.62909 14.2842C8.54401 14.3207 8.50754 14.2661 8.13066 14.3086C7.75379 14.3511 7.77198 14.4424 7.46806 14.2903C7.16413 14.1383 7.09118 13.9499 6.98176 14.1383C6.87233 14.3268 6.95135 14.4227 6.71431 14.3748C6.47726 14.3268 6.64742 14.2235 6.33137 14.1445C6.01531 14.0655 5.95449 14.0898 5.95449 13.95C5.95449 13.8102 5.99703 13.6278 5.74777 13.6096C5.49852 13.5914 5.06091 13.6947 4.70223 13.798C4.34354 13.9014 4.41649 13.7737 4.00314 13.9196C3.58979 14.0655 3.33447 14.1141 3.29193 14.339C3.24939 14.5639 3.10956 14.6915 3.01842 14.8132C2.92728 14.9347 2.87858 15.4697 2.85433 15.7979C2.82998 16.1262 2.91515 15.9742 2.82392 16.2173C2.73269 16.4605 2.98801 16.8434 3.09137 16.9467C3.19473 17.0501 3.52906 17.3783 3.74176 17.4026C3.95454 17.427 3.93626 17.3236 4.26453 17.3722C4.5928 17.4208 4.58674 17.2324 4.92107 17.3175C5.25541 17.4026 5.37696 17.4634 5.57146 17.5668C5.76597 17.6701 5.78425 17.7552 5.78425 18.0045C5.78425 18.2537 5.79638 18.0653 5.97269 18.4178C6.14899 18.7704 6.45898 19.0986 6.27661 19.4026C6.09424 19.7065 6.01522 19.7612 6.13071 20.0469C6.2462 20.3326 6.56841 20.9101 6.60488 21.2019C6.64136 21.4937 6.55021 21.5118 6.58669 21.6882C6.62316 21.8645 6.95144 22.059 7.2493 21.9374C7.54716 21.8159 7.6383 21.8098 7.88149 21.5849C8.1246 21.36 8.36779 21.5302 8.55017 21.0621C8.73254 20.5941 8.67172 20.5393 8.75073 20.3509C8.82975 20.1625 9.30392 19.8889 9.32211 19.5485C9.3403 19.2081 9.21875 18.9528 9.26129 18.6246C9.30383 18.2964 9.33424 18.0107 9.65029 17.7493C9.96635 17.4879 10.0393 17.7433 10.2581 17.2509C10.477 16.7585 10.7384 16.637 10.4952 16.6431C10.252 16.6491 9.77791 16.8436 9.57734 16.7342C9.37678 16.6248 9.04851 16.1263 8.98162 15.8954C8.91474 15.6644 8.93908 15.7799 8.82359 15.4516C8.70811 15.1233 8.59868 14.9532 8.55008 14.8255C8.50147 14.6979 8.47106 14.4729 8.61696 14.6553C8.76286 14.8377 8.9027 15.1112 9.0972 15.5306C9.2917 15.95 9.40719 16.2722 9.57743 16.3391C9.74768 16.406 9.80234 16.485 10.0577 16.3817C10.313 16.2783 10.4041 16.2662 10.6473 16.1324C10.8904 15.9986 11.0363 15.9744 11.2126 15.7981C11.3889 15.6218 11.7901 15.5488 11.3464 15.3787C10.9026 15.2085 10.7507 15.3057 10.6231 15.1112C10.4954 14.9167 10.2887 14.7222 10.4772 14.7526C10.6656 14.783 10.5927 14.8377 10.8054 14.8802C11.0182 14.9228 11.1702 14.827 11.2857 14.9812C11.4012 15.1356 11.5957 15.245 11.778 15.1598C11.9604 15.0747 12.0334 15.0261 12.2279 15.1355C12.4224 15.2449 12.2947 15.5549 12.5865 15.64C12.8783 15.725 12.9269 15.409 12.9878 15.8102C13.0486 16.2114 13.1641 16.5821 13.2673 16.6612C13.3707 16.7403 13.2127 17.105 13.5409 17.0077C13.8691 16.9104 13.9663 16.9226 13.9663 16.5822C13.9663 16.2418 13.9542 16.1568 14.1304 16.0351C14.3067 15.9136 14.5498 15.792 14.6593 15.6643C14.7687 15.5367 14.7018 15.4576 14.9207 15.4819C15.1395 15.5063 15.6805 16.1141 15.6561 16.2417C15.6318 16.3694 15.6075 16.4181 15.7108 16.4971C15.8141 16.5761 15.8081 16.6004 15.8871 16.8861C15.9661 17.1718 15.9479 17.1292 16.1971 17.3967C16.4463 17.6642 16.7989 17.8526 16.7685 17.6581C16.7381 17.4636 16.6165 17.4879 16.5071 17.1779C16.3977 16.8679 16.27 16.5882 16.4159 16.6673C16.5618 16.7463 16.5193 16.8618 16.6713 16.8862C16.8232 16.9105 16.8476 16.7342 16.9631 16.6794C17.0785 16.6248 17.2853 16.181 17.1211 15.9865C16.957 15.792 16.7867 15.6582 16.957 15.5975C17.1272 15.5367 17.0481 15.5793 17.2488 15.6157C17.4494 15.6522 17.3886 15.5549 17.6317 15.4881C17.8748 15.4212 18.2275 15.3118 18.4159 15.0687C18.6043 14.8256 18.811 14.7526 18.7563 14.4304C18.7016 14.1083 18.6287 13.9685 18.5132 13.8833C18.3977 13.7982 18.3916 13.7374 18.4949 13.7009C18.5983 13.6644 18.8657 13.6584 18.7137 13.5794C18.5618 13.5004 18.6347 13.5429 18.4584 13.5004C18.2821 13.4578 18.0937 13.5429 18.2517 13.397C18.4097 13.2511 18.5313 13.1295 18.5313 13.1295C18.5313 13.1295 18.4887 13.16 18.5921 13.2694C18.6955 13.3788 18.7624 13.3302 18.811 13.3058C18.8596 13.2815 19.0055 13.1782 19.0237 13.2937C19.042 13.4092 18.8353 13.4943 18.9569 13.5368C19.0784 13.5794 19.1878 13.4699 19.1392 13.6888C19.0906 13.9076 19.1878 14.1082 19.2912 13.9988C19.3946 13.8894 19.5465 13.5672 19.5161 13.4335C19.4857 13.2998 19.3823 13.3666 19.5222 13.1235C19.662 12.8804 19.662 12.7101 19.8504 12.7405C20.0389 12.7709 20.2212 12.5886 20.2942 12.5156C20.3671 12.4427 20.6771 12.2724 20.7257 12.0658C20.7743 11.8591 20.7501 11.8288 20.8169 11.5916C20.8838 11.3546 21.0297 11.3546 20.8473 11.2452C20.6649 11.1357 20.5251 11.1601 20.4948 11.0384C20.4644 10.9169 20.9811 10.3272 21.206 10.2361C21.4309 10.145 21.5889 10.1875 21.7409 10.2543C21.8928 10.3212 21.9414 10.388 22.0813 10.3029C22.2211 10.2178 22.3123 10.1691 22.3913 10.1631C22.4703 10.157 22.6891 9.99281 22.7803 10.0658C22.8714 10.1387 22.8836 10.2177 22.9931 10.1691C23.1025 10.1205 23.2484 9.86519 23.297 9.95634C23.3456 10.0475 23.3335 10.1569 23.1997 10.3332C23.0659 10.5095 22.9504 10.5399 22.7803 10.6797C22.61 10.8195 22.5432 10.9654 22.5432 11.093C22.5432 11.2206 22.4946 11.6462 22.5614 11.6523C22.6283 11.6583 22.6465 11.6401 22.8228 11.4152C22.9991 11.1903 23.0903 11.1782 23.2058 11.093C23.3212 11.0079 23.3638 10.9046 23.3821 10.704C23.4003 10.5035 23.2726 10.4548 23.4611 10.3515C23.6495 10.2481 23.8744 10.1387 24.0629 10.1691C24.2513 10.1995 24.2088 10.1935 24.3486 10.0536C24.4884 9.9138 24.5856 9.82266 24.7315 9.83478C24.8774 9.84691 25.1145 9.87732 25.1509 9.80437C25.1874 9.73143 25.157 9.67069 25.1631 9.56733C25.1691 9.46397 25.157 9.42143 25.2968 9.38496C25.4367 9.34849 25.4305 9.29988 25.4974 9.27554C25.5643 9.25119 25.6068 9.32414 25.7163 9.36668C25.8257 9.40922 26.0931 9.41528 26.154 9.33627C26.2147 9.25708 26.312 9.19019 26.312 9.19019Z" fill="#9FA6A9"/>
<path d="M20.975 12.4969C21.0544 12.5261 21.206 12.6488 21.2972 12.6428C21.3883 12.6367 21.437 12.7583 21.3641 12.7704C21.2911 12.7825 21.048 12.898 21.048 12.898C21.048 12.898 20.9751 12.8069 20.9325 12.898C20.89 12.9892 20.8657 13.056 20.8779 13.1108C20.89 13.1655 20.9752 13.3236 20.9265 13.4026C20.8779 13.4816 20.811 13.5241 20.811 13.6214C20.811 13.7186 20.8718 13.822 20.7866 13.8645C20.7016 13.9071 20.6164 13.9193 20.5435 13.9436C20.4706 13.9679 20.4159 13.974 20.3855 14.0409C20.3551 14.1077 20.2821 14.2049 20.1302 14.1989C19.9782 14.1928 19.9782 14.0713 19.8384 14.1868C19.6986 14.3022 19.6925 14.3691 19.6195 14.3387C19.5466 14.3083 19.6013 14.2658 19.6195 14.1503C19.6377 14.0348 19.3703 14.0652 19.6135 13.9314C19.8566 13.7977 19.8566 13.7795 20.0208 13.7551C20.1849 13.7308 20.2761 13.8098 20.3429 13.67C20.4098 13.5302 20.3429 13.4755 20.4766 13.4695C20.6104 13.4634 20.6955 13.5242 20.7198 13.3722C20.7441 13.2202 20.7258 13.0926 20.7198 12.9953C20.7137 12.898 20.6772 12.8069 20.7866 12.7704C20.8961 12.7339 20.9082 12.8008 20.9204 12.7157C20.9324 12.6306 20.8595 12.4543 20.975 12.4969Z" fill="#9FA6A9"/>
<path d="M18.5314 15.7915C18.6469 15.8098 18.7015 16.0164 18.6652 16.1015C18.6287 16.1866 18.5922 16.2839 18.6956 16.3021C18.7989 16.3203 18.8719 16.3325 18.8719 16.4054C18.8719 16.4784 18.9144 16.3264 18.9934 16.5209C19.0724 16.7154 18.9995 16.7458 19.0907 16.8917C19.1819 17.0376 19.2913 17.1106 19.1637 17.1835C19.0361 17.2565 19.1333 17.3355 18.9996 17.2929C18.8659 17.2504 18.9206 17.2747 18.8537 17.147C18.7868 17.0194 18.7443 17.1227 18.6835 17.1166C18.6227 17.1106 18.6045 17.1106 18.6531 17.0255C18.7017 16.9404 18.7261 16.9465 18.6714 16.8492C18.6167 16.7519 18.7018 16.6364 18.6228 16.6182C18.5438 16.6 18.5194 16.7337 18.3797 16.8188C18.2399 16.9038 18.0332 16.9282 18.0393 16.8978C18.0453 16.8674 18.1244 16.8248 18.2521 16.6668C18.3797 16.5088 18.4588 16.606 18.4344 16.3629C18.4101 16.1198 18.325 16.1866 18.404 16.0164C18.4828 15.8463 18.5314 15.7915 18.5314 15.7915Z" fill="#9FA6A9"/>
<path d="M18.1423 17.1715C18.2344 17.2635 18.3551 17.2384 18.3186 17.3296C18.2822 17.4207 18.1739 17.4329 18.2341 17.5241C18.2943 17.6153 18.3491 17.749 18.4281 17.7368C18.5071 17.7247 18.501 17.6639 18.6955 17.6639C18.89 17.6639 19.0116 17.6213 19.0238 17.7004C19.0359 17.7794 18.9387 17.7854 18.811 17.9009C18.6834 18.0164 18.5557 18.1319 18.659 18.2049C18.7624 18.2778 18.8049 18.4116 18.7685 18.4602C18.732 18.5088 18.6955 18.5575 18.7806 18.6182C18.8657 18.679 19.273 18.6607 19.1757 18.8066C19.0784 18.9525 18.8413 19.0316 18.5921 19.0376C18.3428 19.0437 18.5432 18.9707 18.0388 18.9221C17.5344 18.8735 17.4493 19.0011 17.0968 18.831C16.7443 18.6607 16.5132 18.8066 16.3187 18.4966C16.1242 18.1867 16.2032 18.3386 15.96 18.0164C15.7169 17.6943 15.8324 17.6943 15.6257 17.5666C15.419 17.439 15.2427 17.2566 15.3826 17.2566C15.5224 17.2566 15.4555 17.0925 15.8871 17.4511C16.3186 17.8097 16.2031 17.7915 16.5193 18.0043C16.8353 18.2171 16.9387 18.2413 17.0542 18.2171C17.1696 18.1927 17.3399 18.2171 17.2305 18.0772C17.121 17.9374 17.0602 17.7612 17.1515 17.7308C17.2427 17.7004 17.2365 17.8523 17.3885 17.6882C17.5405 17.5241 17.5405 17.4815 17.6742 17.4268C17.808 17.3722 17.735 17.4268 17.8627 17.3478C17.9904 17.2688 18.039 17.0682 18.1423 17.1715Z" fill="#9FA6A9"/>
<path d="M19.814 17.8766C19.8801 17.9616 19.9903 18.0711 20.0389 18.1624C20.0875 18.2536 20.1787 18.0852 20.3549 18.0903C20.5312 18.0955 20.7926 18.1927 20.9021 18.2414C21.0115 18.2901 21.1999 18.3204 21.3154 18.4784C21.4309 18.6364 21.516 18.5453 21.5221 18.7033C21.5282 18.8613 21.5525 18.8432 21.6558 18.9343C21.7592 19.0254 21.7774 19.1957 21.595 19.1227C21.4126 19.0498 21.3579 18.8006 21.1634 18.8249C20.9689 18.8492 21.048 18.9039 20.896 18.9343C20.744 18.9647 20.6771 18.91 20.4948 18.8978C20.3124 18.8857 20.1787 18.9464 20.2638 18.7823C20.3489 18.6182 20.4097 18.6122 20.1118 18.4905C19.814 18.369 19.6985 18.4297 19.6985 18.3021C19.6985 18.1745 19.7471 18.1623 19.6316 18.0528C19.5161 17.9434 19.4796 17.8644 19.5526 17.8096C19.6255 17.755 19.7714 17.8219 19.814 17.8766Z" fill="#9FA6A9"/>
<path d="M20.1666 19.6272C20.3672 19.7306 20.4462 19.9372 20.5435 19.9007C20.6408 19.8643 20.6043 19.8034 20.6772 19.5847C20.7501 19.3658 20.7562 19.1409 20.8474 19.2321C20.9386 19.3233 20.8535 19.5013 20.9994 19.5582C21.1453 19.6151 21.1757 19.6577 21.2061 19.8279C21.2365 19.9981 21.2669 19.9434 21.4189 20.1197C21.5708 20.296 21.7073 20.2656 21.7333 20.4661C21.7593 20.6667 22.0146 20.8734 22.0267 21.08C22.0389 21.2868 22.0753 21.4326 21.9234 21.694C21.7714 21.9553 21.7106 22.089 21.662 22.1985C21.6134 22.308 21.4675 22.3626 21.3095 22.3626C21.1514 22.3626 21.0602 22.2957 20.963 22.3201C20.8657 22.3444 20.7989 22.466 20.6834 22.3809C20.5679 22.2958 20.501 22.1864 20.4646 22.1195C20.4281 22.0526 20.4099 21.8277 20.2397 21.8521C20.0695 21.8764 20.0938 21.9615 19.9904 21.8521C19.887 21.7427 19.96 21.6515 19.6561 21.6028C19.3521 21.5542 19.2731 21.5299 19.1454 21.5603C19.0178 21.5907 18.884 21.6332 18.7442 21.7426C18.6044 21.8521 18.3855 21.7974 18.264 21.8521C18.1424 21.9067 17.96 22.0284 17.8263 21.9554C17.6925 21.8825 17.7412 21.846 17.7473 21.6759C17.7533 21.5056 17.7412 21.6212 17.6561 21.3294C17.571 21.0376 17.6075 21.0801 17.5285 20.9404C17.4495 20.8006 17.3887 20.8674 17.4981 20.6669C17.6075 20.4663 17.571 20.4238 17.6318 20.3569C17.6926 20.29 17.7473 20.3752 17.954 20.2353C18.1607 20.0955 18.2214 20.1563 18.4099 20.0834C18.5983 20.0104 18.6408 19.7308 18.7563 19.6457C18.8718 19.5606 18.9022 19.4937 18.9873 19.4937C19.0724 19.4937 19.1697 19.5423 19.3216 19.6031C19.4736 19.6639 19.4432 19.67 19.5709 19.5302C19.6985 19.3903 19.5709 19.2567 19.8019 19.2809C20.0328 19.3053 20.1179 19.2688 20.1483 19.4025C20.1787 19.5361 20.1666 19.6272 20.1666 19.6272Z" fill="#9FA6A9"/>
<path d="M24.3852 22.4963C24.5067 22.3383 24.5675 22.32 24.525 22.1376C24.4825 21.9552 24.4946 21.8122 24.6526 21.9749C24.8106 22.1376 24.9869 22.2288 25.1085 22.2349C25.2301 22.241 25.5219 22.3322 25.224 22.5571C24.9261 22.782 24.9809 22.624 24.7438 22.9583C24.5067 23.2927 24.6891 23.2987 24.4034 23.4628C24.1176 23.6269 23.8016 23.6999 23.8624 23.554C23.9232 23.4081 23.8928 23.4081 24.1542 23.2136C24.4156 23.0191 24.5857 22.8732 24.5857 22.7092C24.5857 22.545 24.3852 22.4963 24.3852 22.4963Z" fill="#9FA6A9"/>
<path d="M9.86925 20.8552C9.75982 20.6972 9.75982 20.6485 9.7477 20.3932C9.73557 20.1379 9.6504 20.0164 9.7477 19.8705C9.84499 19.7246 10.1002 19.4815 10.1975 19.3112C10.2948 19.1411 10.3191 18.7763 10.3799 19.1045C10.4407 19.4328 10.6352 19.6273 10.3434 20.065C10.0516 20.5026 9.86925 20.8552 9.86925 20.8552Z" fill="#9FA6A9"/>
<path d="M4.02166 11.8101C3.99731 11.7615 4.10674 11.6034 4.10674 11.6034C4.10674 11.6034 4.2405 11.5304 4.20403 11.263C4.16756 10.9955 4.14321 11.1535 4.046 10.8982C3.94871 10.6429 3.8029 10.6915 3.94871 10.5213C4.09461 10.3511 4.26476 10.0959 4.30124 10.3025C4.33771 10.5091 4.25263 10.6429 4.33771 10.7402C4.42279 10.8375 4.59303 10.8575 4.69024 11.0177C4.78754 11.1778 5.17654 11.2386 4.88474 11.4452C4.59295 11.652 4.45926 11.5182 4.34984 11.6641C4.24042 11.8101 4.02166 11.8101 4.02166 11.8101Z" fill="#9FA6A9"/>
<path d="M3.63258 11.6155C3.82708 11.5061 3.89819 11.5304 3.88694 11.3358C3.87569 11.1413 4.00946 10.9711 3.80274 10.959C3.59611 10.9468 3.53529 11.0684 3.51094 11.1535C3.48659 11.2386 3.48659 11.2629 3.54741 11.348C3.60824 11.4331 3.62036 11.5547 3.59602 11.6154C3.57185 11.6763 3.63258 11.6155 3.63258 11.6155Z" fill="#9FA6A9"/>
<path d="M2.92742 9.71907C3.08545 9.60965 3.34077 9.70694 3.3529 9.47588C3.36503 9.2449 3.42585 9.18408 3.07332 9.15982C2.72079 9.13548 2.72079 9.13548 2.50194 9.15982C2.28309 9.18417 2.07646 8.96532 2.24662 9.29359C2.41678 9.62186 2.44112 9.69481 2.57489 9.71907C2.70866 9.74333 2.92742 9.71907 2.92742 9.71907Z" fill="#9FA6A9"/>
<path d="M27.4001 8.84378C27.2103 8.62687 26.9016 8.6128 27.1447 8.47903C27.3879 8.34535 27.5338 8.26019 27.7648 8.21158C27.9958 8.16298 28.239 8.26019 28.6159 8.35748C28.9927 8.45478 29.6006 8.36961 29.8803 8.45478C30.1598 8.53985 30.2936 8.7101 30.3787 8.69788C30.4638 8.68575 30.707 8.43043 30.9501 8.43043C31.1932 8.43043 31.3148 8.39396 31.8132 8.45478C32.3117 8.5156 32.798 8.53985 32.8101 8.66149C32.8222 8.78305 32.8222 8.84387 33.0046 8.84387C33.187 8.84387 33.345 8.73444 33.4544 8.90469C33.5638 9.07493 33.734 9.19648 33.7097 9.06271C33.6854 8.92903 33.5638 8.81961 33.6611 8.77092C33.7584 8.72231 34.038 8.69797 34.111 8.72231C34.1839 8.74666 34.4149 8.78313 34.4878 8.77092C34.5608 8.75879 34.5122 8.63715 34.7553 8.7101C34.9984 8.78305 35.0349 8.96542 35.0836 8.97755C35.1322 8.98968 35.2416 8.79061 35.2537 8.65921C35.2658 8.52772 35.3753 8.52772 35.1565 8.35757C34.9377 8.18732 35.1353 7.98069 35.2918 8.05364C35.4482 8.12659 35.351 8.22389 35.509 8.38191C35.6671 8.53994 35.6914 8.67371 35.8008 8.62502C35.9103 8.57642 35.8494 8.3697 35.9953 8.52772C36.1412 8.68575 36.1777 8.60612 36.3114 8.57905C36.4452 8.55198 36.3357 8.4669 36.4938 8.55198C36.6518 8.63706 36.9192 8.73436 36.7247 8.89238C36.5302 9.05041 36.2384 9.02615 36.0318 9.14771C35.8251 9.26926 35.8859 9.23278 35.8251 9.37868C35.7643 9.52458 35.7886 9.53671 35.5455 9.59753C35.3023 9.65835 35.2295 9.60966 35.2416 9.81638C35.2537 10.0231 35.2295 10.0474 35.1443 10.1568C35.0592 10.2662 35.1078 10.3635 35.2051 10.4121C35.3024 10.4607 35.4117 10.3756 35.4117 10.5215C35.4117 10.6674 35.5941 10.7768 35.8372 10.7768C36.0803 10.7768 36.1897 10.8377 36.3356 11.02C36.4815 11.2023 36.2748 11.2145 36.518 11.4454C36.7611 11.6764 36.9922 11.7858 37.0287 11.5792C37.0651 11.3726 37.0287 11.3239 37.0651 11.0808C37.1016 10.8377 37.3326 10.8133 37.211 10.5945C37.0895 10.3756 36.9071 10.2784 37.0773 10.1568C37.2475 10.0352 37.0408 9.9229 37.3326 9.86357C37.6244 9.80425 37.8189 9.75556 37.9404 9.9744C38.062 10.1933 37.9283 10.3392 38.0499 10.4364C38.1714 10.5337 38.5483 10.3878 38.6212 10.3027C38.6942 10.2176 38.9008 10.2297 38.9738 10.5458C39.0467 10.8618 39.0953 10.947 39.2047 10.9835C39.3142 11.02 39.3142 11.0929 39.4479 11.2145C39.5816 11.336 39.8369 11.5305 39.4479 11.567C39.0589 11.6035 38.7428 11.5549 38.5969 11.6885C38.451 11.8222 38.4389 11.725 38.5361 11.9074C38.6334 12.0898 38.5604 11.9682 38.6334 12.1992C38.7063 12.4302 39.0711 12.4302 38.8035 12.5882C38.536 12.7462 38.5847 12.7827 38.4267 12.7341C38.2686 12.6855 38.2322 12.3364 38.0498 12.6204C37.8674 12.9043 37.8917 13.0137 37.7337 13.0988C37.5757 13.1839 37.5635 13.0137 37.4177 13.2812C37.2718 13.5487 37.5027 13.573 37.1746 13.8769C36.8463 14.1808 36.6883 14.035 36.6639 14.2903C36.6396 14.5456 36.7977 14.8495 36.7125 14.9103C36.6274 14.9712 36.6396 14.9589 36.5424 14.7888C36.4451 14.6185 36.4938 14.5213 36.1534 14.497C35.813 14.4726 35.8373 14.3876 35.7035 14.5335C35.5698 14.6794 35.7521 14.728 35.3753 14.6794C34.9984 14.6308 34.9498 14.1809 34.8768 14.7037C34.8039 15.2265 34.7918 15.2872 34.9133 15.4331C35.0349 15.579 35.3631 15.9315 35.509 15.7735C35.6549 15.6155 35.4726 15.421 35.7522 15.4817C36.0318 15.5425 36.1048 15.4696 36.0562 15.6276C36.0075 15.7856 35.6307 15.81 35.9346 15.9559C36.2385 16.1018 36.4938 15.9315 36.5181 16.1626C36.5425 16.3936 36.4816 16.4544 36.4938 16.5881C36.5059 16.7218 36.5667 16.8191 36.8463 16.8191C37.1259 16.8191 37.1137 16.7096 37.1867 16.8555C37.2596 17.0014 37.4906 16.9285 37.5879 16.7218C37.6852 16.515 37.7582 16.2841 37.904 16.5273C38.0499 16.7704 38.0741 16.8191 38.22 16.7218C38.3659 16.6245 38.3659 16.6245 38.3659 16.6245C38.3659 16.6245 38.5239 16.4786 38.6577 16.6001C38.7915 16.7217 39.0102 16.588 39.0589 16.7582C39.1075 16.9283 39.0346 16.9527 39.2413 17.0135C39.448 17.0743 39.6911 16.977 39.8127 17.1472C39.9342 17.3174 39.606 17.208 39.9586 17.4146C40.3111 17.6213 40.4205 17.6456 40.3963 17.7794C40.3719 17.9131 40.4692 17.9374 40.7853 18.0103C41.1013 18.0833 41.0527 18.0468 41.3081 18.2413C41.5634 18.4358 41.77 18.3507 41.8552 18.448C41.9403 18.5453 42.0862 18.5696 41.9646 18.837C41.843 19.1045 41.7215 19.0437 41.6242 19.2504C41.5269 19.4571 41.4418 19.5057 41.4662 19.8704C41.4905 20.2352 41.5026 20.1987 41.4297 20.3811C41.3567 20.5635 41.0893 20.5877 40.8705 20.7215C40.6516 20.8553 40.6395 20.7458 40.4936 21.1105C40.3477 21.4752 40.4328 21.2807 40.3112 21.5968C40.1897 21.9129 40.3598 21.7548 40.0073 21.9372C39.6547 22.1196 39.521 21.9615 39.4845 22.071C39.448 22.1804 39.6912 22.0953 39.4359 22.3263C39.1806 22.5573 39.0712 22.6181 38.9131 22.7153C38.7551 22.8125 38.6578 22.922 38.6943 23.1286C38.7308 23.3353 38.9131 23.3231 38.7064 23.5176C38.4997 23.7121 38.4146 23.5176 38.3539 23.8337C38.2931 24.1498 38.2323 24.0039 38.2931 24.3321C38.3539 24.6604 38.6699 24.6604 38.3781 24.8428C38.0863 25.0251 37.7703 25.1102 37.5879 24.6726C37.4055 24.2349 37.4055 24.0648 37.4055 23.773C37.4055 23.4812 37.3691 23.7 37.515 23.2016C37.6609 22.7032 37.4177 22.8733 37.5393 22.3263C37.6609 21.7792 37.6366 21.1957 37.7582 20.7944C37.8797 20.3932 38.1472 20.5026 37.8797 20.138C37.6123 19.7732 37.5637 19.8341 37.3327 19.5909C37.1017 19.3478 37.2476 19.3964 37.1138 19.1046C36.9801 18.8128 36.895 18.8371 36.7856 18.6183C36.6761 18.3994 36.6153 18.4724 36.7247 18.1077C36.8342 17.743 36.5911 17.7552 36.8342 17.6458C37.0773 17.5363 37.0409 17.2689 37.0044 17.1716C36.9679 17.0743 37.1868 17.0378 36.8464 16.9892C36.506 16.9406 36.4087 17.05 36.2871 16.8433C36.1656 16.6366 36.2628 16.6002 36.0076 16.4786C35.7522 16.357 35.4726 16.357 35.3754 16.2597C35.2781 16.1624 35.2781 16.1624 35.2781 16.1624C35.2781 16.1624 35.4604 16.0895 35.0471 16.0409C34.6337 15.9923 34.3298 16.0409 34.1231 15.7491C33.9164 15.4573 33.9651 15.6275 33.9164 15.3601C33.8678 15.0926 33.8069 15.0926 33.6124 14.9224C33.4179 14.7522 33.4179 14.6549 33.2356 14.582C33.0532 14.509 33.0167 14.5334 33.0167 14.5699C33.0167 14.6063 33.0046 14.7522 33.1747 14.8859C33.345 15.0197 33.3571 15.1412 33.3571 15.202C33.3571 15.2628 33.1261 15.3357 33.1261 15.3357C33.1261 15.3357 33.1261 15.2628 33.0532 15.0926C32.9802 14.9224 32.9559 14.8373 32.81 14.6307C32.6641 14.424 32.6276 14.3997 32.6276 14.3997C32.6276 14.3997 32.4574 14.1322 32.1657 13.7797C31.8739 13.4272 31.7888 13.6459 31.7888 13.2448C31.7888 12.8436 31.8618 12.8436 31.7888 12.564C31.7159 12.2844 31.5457 12.1507 31.6915 12.1021C31.8374 12.0535 31.9225 11.9805 31.655 11.7495C31.3876 11.5186 31.2903 11.6401 31.1931 11.3241C31.0958 11.008 31.3025 11.0323 30.9013 10.8864C30.5001 10.7405 30.4515 10.6189 30.2691 10.5338C30.0867 10.4487 29.9773 10.4001 29.9773 10.4001C29.9773 10.4001 30.0138 10.3637 29.5761 10.3272C29.1384 10.2907 29.1871 10.0841 28.8588 10.2178C28.5305 10.3515 28.4819 10.3758 28.4819 10.3758C28.4819 10.3758 28.6643 10.157 28.3482 10.1813C28.0322 10.2056 28.105 10.2786 28.0929 10.4245C28.0808 10.5704 28.1294 10.7405 27.9105 10.8257C27.6917 10.9108 27.3756 11.1418 27.4972 10.8987C27.6187 10.6555 27.9227 10.4853 27.8132 10.4245C27.7038 10.3637 27.4728 10.5582 27.4485 10.3637C27.4242 10.1692 27.4728 10.0719 27.2175 10.0597C26.9622 10.0476 26.7556 9.93819 26.9501 9.85303C27.1446 9.76795 27.3269 9.80442 27.3878 9.5977C27.4486 9.39099 27.8984 9.34238 27.3999 9.3546C26.9015 9.36673 26.6826 9.36673 26.7434 9.26952C26.8043 9.17223 26.7799 8.98994 27.1324 9.03854C27.4851 9.08688 27.4851 8.94099 27.4001 8.84378Z" fill="#9FA6A9"/>
</g>
<path d="M7.46203 19.2037C7.40851 19.0834 7.34171 18.9831 7.25479 18.9028C7.16118 18.8226 7.0609 18.7625 6.94049 18.7156C6.82685 18.6755 6.69976 18.6555 6.57275 18.6555C6.43899 18.6555 6.31198 18.6756 6.19834 18.7156C6.18498 18.7223 6.16494 18.729 6.1515 18.7358C6.05789 18.7826 5.96429 18.836 5.89072 18.9029C5.79712 18.9832 5.73024 19.0835 5.67671 19.2038C5.62318 19.3175 5.59647 19.4579 5.59647 19.605V20.9557C5.59647 21.1095 5.62318 21.2432 5.67671 21.3635C5.73015 21.4839 5.79703 21.5775 5.89072 21.6645C5.97765 21.7447 6.08461 21.8048 6.19825 21.8449C6.3119 21.8851 6.43899 21.9051 6.57267 21.9051C6.63287 21.9051 6.69976 21.8984 6.75987 21.8917C6.82008 21.8784 6.88688 21.8649 6.9404 21.8449C7.06081 21.8048 7.1611 21.7447 7.2547 21.6645C7.34162 21.5775 7.40851 21.4839 7.46194 21.3635C7.51547 21.2432 7.54219 21.1095 7.54219 20.9557V19.605C7.54228 19.4578 7.51556 19.3173 7.46203 19.2037ZM6.96053 20.9489C6.96053 21.0893 6.92045 21.1896 6.85357 21.2699C6.78668 21.3368 6.70644 21.3768 6.60615 21.3836H6.57275C6.45243 21.3836 6.35874 21.3434 6.28527 21.2699C6.21838 21.1896 6.1783 21.0894 6.1783 20.9489V19.6184C6.1783 19.5916 6.1783 19.5715 6.18498 19.5515C6.18498 19.5448 6.19166 19.5381 6.19166 19.5381C6.19834 19.4379 6.23174 19.3643 6.28527 19.2974C6.29862 19.2841 6.31198 19.2707 6.32534 19.264C6.39223 19.2038 6.47247 19.1837 6.57275 19.1837C6.68649 19.1837 6.78 19.2171 6.85365 19.2974C6.92054 19.3776 6.96062 19.4846 6.96062 19.6184L6.96053 20.9489Z" fill="#CECECF"/>
<path d="M9.01326 18.6819L8.36462 19.2503V19.8788L9.01326 19.3105V21.878H9.60168V18.6819H9.01326Z" fill="#CECECF"/>
<path d="M10.6783 18.6819V19.7116H11.2333V19.2101H12.0825L11.0394 21.878H11.6746L12.711 19.2101V18.6819H10.6783Z" fill="#CECECF"/>
<path d="M15.1182 19.2036C15.0647 19.0832 14.9979 18.983 14.911 18.9027C14.8174 18.8225 14.7171 18.7624 14.5967 18.7155C14.4764 18.6753 14.3559 18.6554 14.2289 18.6554C14.0952 18.6554 13.9682 18.6754 13.8545 18.7155C13.7342 18.7624 13.6338 18.8225 13.5469 18.9027C13.4533 18.983 13.3797 19.0832 13.3329 19.2036C13.2795 19.3173 13.2527 19.4577 13.2527 19.6048V20.9555C13.2527 21.1093 13.2795 21.243 13.3329 21.3633C13.3797 21.4837 13.4533 21.5773 13.5469 21.6642C13.6338 21.7445 13.7341 21.8046 13.8545 21.8447C13.9682 21.8848 14.0953 21.9049 14.2289 21.9049C14.3559 21.9049 14.4764 21.8848 14.5967 21.8447C14.717 21.8046 14.8174 21.7445 14.911 21.6642C14.9979 21.5773 15.0648 21.4837 15.1182 21.3633C15.1717 21.243 15.1985 21.1093 15.1985 20.9555V19.6048C15.1984 19.4577 15.1717 19.3172 15.1182 19.2036ZM14.61 20.9488C14.61 21.0892 14.5766 21.1895 14.5098 21.2698C14.4362 21.3433 14.3426 21.3834 14.2289 21.3834C14.1086 21.3834 14.015 21.3433 13.9415 21.2698C13.8747 21.1895 13.8345 21.0893 13.8345 20.9488V19.6182C13.8345 19.4845 13.8747 19.3774 13.9415 19.2973C14.015 19.217 14.1086 19.1835 14.2289 19.1835C14.3426 19.1835 14.4362 19.217 14.5098 19.2973C14.5766 19.3775 14.61 19.4845 14.61 19.6182V20.9488Z" fill="#CECECF"/>
<path d="M20.0125 20.5141C19.9725 20.3938 19.9056 20.2935 19.8253 20.2132C19.7451 20.133 19.6582 20.0729 19.5579 20.026C19.4576 19.986 19.3505 19.9658 19.2436 19.9658C19.2035 19.9658 19.1633 19.9658 19.1233 19.9725C19.0832 19.9792 19.043 19.9859 19.0096 20.0059L19.2302 19.5714L19.6715 18.682H19.0363L18.9695 18.8158V18.8225L18.8892 18.9829L18.361 20.0661C18.3543 20.0795 18.3476 20.0929 18.3409 20.1063C18.2741 20.24 18.2206 20.367 18.1738 20.494C18.1203 20.6277 18.0935 20.7749 18.0935 20.922C18.0935 21.0758 18.1136 21.2162 18.1671 21.3432C18.2206 21.4636 18.2874 21.5705 18.3811 21.6508C18.448 21.7177 18.5148 21.7645 18.6017 21.8046H18.6084C18.6352 21.8179 18.6686 21.8314 18.6953 21.8447C18.8156 21.8848 18.9494 21.9049 19.0899 21.9049C19.2302 21.9049 19.3573 21.8848 19.4776 21.8381C19.6046 21.7979 19.705 21.7311 19.7986 21.6441L19.8053 21.6374C19.8922 21.5505 19.9591 21.457 20.0059 21.3299C20.0594 21.2095 20.0861 21.0691 20.0861 20.9086C20.0861 20.7615 20.0594 20.6344 20.0125 20.5141ZM19.0899 20.4473C19.2169 20.4473 19.3171 20.4874 19.3908 20.5743C19.4644 20.6545 19.5044 20.7749 19.5044 20.9153C19.5044 21.0623 19.4644 21.1827 19.3841 21.263C19.3039 21.3432 19.2103 21.3833 19.0899 21.3833C18.9695 21.3833 18.8692 21.3432 18.7889 21.263C18.7154 21.1827 18.6753 21.0623 18.6753 20.9153C18.6753 20.7682 18.7154 20.6479 18.7889 20.5676C18.8692 20.4874 18.9695 20.4473 19.0899 20.4473Z" fill="#CECECF"/>
<path d="M22.5937 20.3535C22.5669 20.2131 22.4866 20.0727 22.3596 19.9525C22.2927 19.8855 22.2126 19.8321 22.1122 19.7919C22.0119 19.7518 21.8983 19.7318 21.7578 19.7318C21.6509 19.7318 21.5572 19.7519 21.4703 19.7853C21.3834 19.8187 21.3232 19.8521 21.2831 19.8923V19.2102H22.5736V18.682H20.7482V20.4874H21.2831C21.3032 20.4273 21.3433 20.367 21.4034 20.3135C21.4435 20.2734 21.4904 20.2466 21.5572 20.24C21.5906 20.2266 21.6308 20.2266 21.6709 20.2266C21.8179 20.2266 21.9183 20.2801 21.9717 20.3736C22.0319 20.4739 22.0653 20.6145 22.0653 20.8016C22.0653 20.9019 22.052 20.9955 22.0385 21.0825C22.0385 21.0958 22.0319 21.1025 22.0252 21.1093C22.0252 21.116 22.0252 21.116 22.0252 21.116C22.0051 21.1828 21.9784 21.2363 21.9383 21.2764C21.8647 21.3499 21.7778 21.3834 21.6574 21.3834C21.5371 21.3834 21.4434 21.3499 21.3833 21.2764C21.3231 21.2095 21.283 21.116 21.2697 20.9889H20.6812C20.6946 21.1026 20.7146 21.2162 20.7481 21.3299C20.7815 21.4503 20.8417 21.5505 20.942 21.6509C21.0089 21.7244 21.1092 21.778 21.2296 21.8314C21.3432 21.8848 21.4904 21.905 21.6575 21.905C21.7177 21.905 21.7645 21.905 21.8113 21.8916H21.818C21.9183 21.8849 22.0052 21.8648 22.0855 21.8315C22.1991 21.778 22.2927 21.7177 22.3663 21.651C22.48 21.5305 22.5535 21.4035 22.5937 21.2699C22.6271 21.1361 22.6472 20.9823 22.6472 20.8018C22.6472 20.6478 22.6271 20.5006 22.5937 20.3535Z" fill="#CECECF"/>
<path d="M23.2021 18.6819V19.7116H23.7571V19.2101H24.6063L23.5699 21.878H24.1984L25.2415 19.2101V18.6819H23.2021Z" fill="#CECECF"/>
<path d="M27.6752 19.2236C27.6284 19.0966 27.5549 18.9963 27.468 18.9094C27.3744 18.8291 27.2741 18.7622 27.1471 18.7222C27.0267 18.6753 26.8997 18.6553 26.7592 18.6553C26.6188 18.6553 26.4851 18.6753 26.3648 18.7222C26.2444 18.769 26.1374 18.8358 26.0438 18.916C25.9569 19.0029 25.89 19.11 25.8365 19.2303C25.7831 19.3573 25.7563 19.4977 25.7563 19.6515C25.7563 19.8053 25.7831 19.9391 25.8299 20.0526C25.8767 20.1664 25.9436 20.2667 26.0171 20.3468C26.0973 20.4271 26.1909 20.4939 26.2912 20.534C26.3915 20.5809 26.4984 20.601 26.6055 20.601C26.6456 20.601 26.6857 20.601 26.7258 20.5943C26.7659 20.5876 26.8061 20.5742 26.8395 20.5608L26.1775 21.878H26.8126L27.488 20.5007C27.5616 20.3536 27.6218 20.2065 27.6752 20.0728C27.7287 19.9324 27.7554 19.792 27.7554 19.6448C27.7554 19.4843 27.7287 19.3439 27.6752 19.2236ZM27.0534 19.9925C26.9731 20.0728 26.8795 20.1129 26.7592 20.1129C26.6322 20.1129 26.5319 20.0728 26.4583 19.9925C26.378 19.9056 26.3446 19.7919 26.3446 19.6515C26.3446 19.4977 26.3847 19.3841 26.4583 19.3038C26.5385 19.2236 26.6388 19.1834 26.7592 19.1834C26.8795 19.1834 26.9731 19.2236 27.0534 19.3038C27.1336 19.3841 27.167 19.4977 27.167 19.6515C27.1671 19.7986 27.1336 19.9123 27.0534 19.9925Z" fill="#CECECF"/>
<path d="M31.5066 18.6819L30.8513 19.2503V19.8788L31.5066 19.3105V21.878H32.0884V18.6819H31.5066Z" fill="#CECECF"/>
<path d="M33.1649 18.6819V19.7116H33.7265V19.2101H34.569L33.5326 21.878H34.1678L35.2042 19.2101V18.6819H33.1649Z" fill="#CECECF"/>
<path d="M36.6084 18.6819L35.9598 19.2503V19.8788L36.6084 19.3105V21.878H37.1968V18.6819H36.6084Z" fill="#CECECF"/>
<path d="M40.1923 19.2236C40.1455 19.0966 40.072 18.9963 39.9851 18.9094C39.8915 18.8291 39.7911 18.7622 39.6641 18.7222C39.5438 18.6753 39.4167 18.6553 39.2764 18.6553C39.1359 18.6553 39.0022 18.6753 38.8818 18.7222C38.7615 18.769 38.6545 18.8358 38.5608 18.916C38.4739 19.0029 38.4003 19.11 38.3536 19.2303C38.3001 19.3573 38.2733 19.4977 38.2733 19.6515C38.2733 19.8053 38.3001 19.9391 38.3469 20.0526C38.3938 20.1664 38.4606 20.2667 38.5341 20.3468C38.6144 20.4271 38.7013 20.4939 38.8082 20.534C38.9085 20.5809 39.0155 20.601 39.1225 20.601C39.1625 20.601 39.2027 20.601 39.2428 20.5943C39.2829 20.5876 39.323 20.5742 39.3565 20.5608L38.6945 21.878H39.3297L40.0051 20.5007C40.0786 20.3536 40.1388 20.2065 40.1923 20.0728C40.2457 19.9324 40.2725 19.792 40.2725 19.6448C40.2726 19.4843 40.2459 19.3439 40.1923 19.2236ZM39.5705 19.9925C39.4903 20.0728 39.3967 20.1129 39.2764 20.1129C39.1494 20.1129 39.049 20.0728 38.9754 19.9925C38.8952 19.9056 38.8618 19.7919 38.8618 19.6515C38.8618 19.4977 38.9019 19.3841 38.9754 19.3038C39.0557 19.2236 39.1559 19.1834 39.2764 19.1834C39.3967 19.1834 39.4903 19.2236 39.5705 19.3038C39.6508 19.3841 39.6842 19.4977 39.6842 19.6515C39.6842 19.7986 39.6508 19.9123 39.5705 19.9925Z" fill="#CECECF"/>
<path d="M28.4241 27.1003C28.384 27.0134 28.3304 26.9398 28.2702 26.8796C28.2034 26.8195 28.1298 26.7727 28.0429 26.7459C27.9559 26.7125 27.8623 26.6991 27.7687 26.6991C27.6685 26.6991 27.5815 26.7125 27.4946 26.7459C27.4077 26.7727 27.3341 26.8195 27.2672 26.8796C27.2004 26.9398 27.1469 27.0134 27.1067 27.1003C27.0733 27.1872 27.0532 27.2875 27.0532 27.3945V28.384C27.0532 28.4978 27.0733 28.5981 27.1067 28.685C27.1469 28.7719 27.2004 28.8455 27.2672 28.9056C27.3341 28.9658 27.4077 29.0126 27.4946 29.0393C27.5815 29.0728 27.6685 29.0861 27.7687 29.0861C27.8623 29.0861 27.9559 29.0728 28.0429 29.0393C28.1298 29.0126 28.2034 28.9658 28.2702 28.9056C28.3304 28.8455 28.3839 28.7719 28.4241 28.685C28.4642 28.5981 28.4776 28.4978 28.4776 28.384V27.3945C28.4776 27.2876 28.4642 27.1873 28.4241 27.1003ZM28.0496 28.3841C28.0496 28.4844 28.0229 28.558 27.9761 28.6182C27.9225 28.6716 27.8558 28.6983 27.7688 28.6983C27.6819 28.6983 27.615 28.6716 27.5616 28.6182C27.5081 28.558 27.4813 28.4844 27.4813 28.3841V27.4013C27.4813 27.3077 27.5081 27.2274 27.5616 27.1672C27.6151 27.1138 27.6819 27.087 27.7688 27.087C27.8558 27.087 27.9226 27.1138 27.9761 27.1672C28.0229 27.2274 28.0496 27.3077 28.0496 27.4013V28.3841Z" fill="#CECECF"/>
<path d="M30.3365 27.9495C30.3164 27.8425 30.2562 27.7422 30.1626 27.6486C30.1158 27.6018 30.0557 27.5616 29.9821 27.5348C29.9085 27.5014 29.8216 27.4881 29.7213 27.4881C29.6478 27.4881 29.5743 27.5014 29.5141 27.5282C29.4472 27.5482 29.4005 27.575 29.3737 27.6085V27.1003H30.3232V26.7191H28.9792V28.043H29.3737C29.3871 27.9963 29.4206 27.9562 29.4607 27.916C29.5074 27.8758 29.5676 27.8492 29.6612 27.8492C29.7615 27.8492 29.8351 27.8893 29.8818 27.9629C29.922 28.0364 29.942 28.1368 29.942 28.2772C29.942 28.3507 29.942 28.4175 29.9287 28.4778C29.9153 28.5379 29.8886 28.5848 29.8551 28.6248C29.8016 28.6783 29.7348 28.6983 29.6479 28.6983C29.5609 28.6983 29.4874 28.6783 29.4473 28.6248C29.4005 28.5713 29.3737 28.5044 29.3604 28.4108H28.9324C28.9391 28.4978 28.9525 28.578 28.9793 28.6649C29.006 28.7452 29.0528 28.8254 29.1264 28.8989C29.1732 28.9457 29.2467 28.9925 29.3337 29.0326C29.4206 29.0661 29.5275 29.0861 29.6479 29.0861C29.7682 29.0861 29.8752 29.0661 29.9622 29.0326C30.0424 28.9925 30.116 28.9457 30.1694 28.8922C30.2497 28.8121 30.3098 28.7184 30.3366 28.6182C30.3633 28.5246 30.3767 28.4042 30.3767 28.2772C30.3766 28.1635 30.3632 28.0565 30.3365 27.9495Z" fill="#CECECF"/>
<path d="M31.56 26.4718L30.6172 29.3136H31.0183L31.9611 26.4718H31.56Z" fill="#CECECF"/>
<path d="M32.8505 26.7191L32.3691 27.1338V27.5951L32.8505 27.1805V29.0661H33.2784V26.7191H32.8505Z" fill="#CECECF"/>
<path d="M34.7227 26.7191L34.2413 27.1338V27.5951L34.7227 27.1805V29.0661H35.1507V26.7191H34.7227Z" fill="#CECECF"/>
<path d="M35.9732 27.9227V28.3239H36.9895V27.9227H35.9732Z" fill="#CECECF"/>
<path d="M38.8216 27.1003C38.7816 27.0134 38.728 26.9398 38.6612 26.8796C38.601 26.8195 38.5208 26.7727 38.4339 26.7459C38.3469 26.7125 38.26 26.6991 38.1664 26.6991C38.0661 26.6991 37.9792 26.7125 37.8923 26.7459C37.8054 26.7727 37.7318 26.8195 37.6649 26.8796C37.598 26.9398 37.5446 27.0134 37.5044 27.1003C37.4643 27.1872 37.4509 27.2875 37.4509 27.3945V28.384C37.4509 28.4978 37.4643 28.5981 37.5044 28.685C37.5445 28.7719 37.598 28.8455 37.6649 28.9056C37.7318 28.9658 37.8054 29.0126 37.8923 29.0393C37.9792 29.0728 38.0661 29.0861 38.1664 29.0861C38.26 29.0861 38.3469 29.0728 38.4339 29.0393C38.5208 29.0126 38.601 28.9658 38.6612 28.9056C38.728 28.8455 38.7816 28.7719 38.8216 28.685C38.855 28.5981 38.8751 28.4978 38.8751 28.384V27.3945C38.8751 27.2876 38.855 27.1873 38.8216 27.1003ZM38.4471 28.3841C38.4471 28.4844 38.4203 28.558 38.3669 28.6182C38.3201 28.6716 38.2466 28.6983 38.1663 28.6983C38.0794 28.6983 38.0058 28.6716 37.9591 28.6182C37.9056 28.558 37.8788 28.4844 37.8788 28.3841V27.4013C37.8788 27.3077 37.9056 27.2274 37.9591 27.1672C38.0059 27.1138 38.0794 27.087 38.1663 27.087C38.2466 27.087 38.3201 27.1138 38.3669 27.1672C38.4204 27.2274 38.4471 27.3077 38.4471 27.4013V28.3841Z" fill="#CECECF"/>
<path d="M40.6938 27.1003C40.6537 27.0134 40.6002 26.9398 40.54 26.8796C40.4731 26.8195 40.3996 26.7727 40.3127 26.7459C40.2258 26.7125 40.1321 26.6991 40.0385 26.6991C39.9382 26.6991 39.8513 26.7125 39.7643 26.7459C39.6774 26.7727 39.6038 26.8195 39.537 26.8796C39.4702 26.9398 39.4166 27.0134 39.3765 27.1003C39.3431 27.1872 39.323 27.2875 39.323 27.3945V28.384C39.323 28.4978 39.3431 28.5981 39.3765 28.685C39.4165 28.7719 39.4701 28.8455 39.537 28.9056C39.6038 28.9658 39.6774 29.0126 39.7643 29.0393C39.8513 29.0728 39.9382 29.0861 40.0385 29.0861C40.1321 29.0861 40.2257 29.0728 40.3127 29.0393C40.3996 29.0126 40.4732 28.9658 40.54 28.9056C40.6002 28.8455 40.6537 28.7719 40.6938 28.685C40.7338 28.5981 40.7472 28.4978 40.7472 28.384V27.3945C40.7473 27.2876 40.7339 27.1873 40.6938 27.1003ZM40.3194 28.3841C40.3194 28.4844 40.2925 28.558 40.2458 28.6182C40.1924 28.6716 40.1255 28.6983 40.0385 28.6983C39.9517 28.6983 39.8847 28.6716 39.8313 28.6182C39.7779 28.558 39.7511 28.4844 39.7511 28.3841V27.4013C39.7511 27.3077 39.7779 27.2274 39.8313 27.1672C39.8848 27.1138 39.9517 27.087 40.0385 27.087C40.1255 27.087 40.1924 27.1138 40.2458 27.1672C40.2926 27.2274 40.3194 27.3077 40.3194 27.4013V28.3841Z" fill="#CECECF"/>
<path d="M5.93085 22.7007V22.9147H6.25182V23.9244H6.49256V22.9147H6.81353V22.7007H5.93085Z" fill="#CECECF"/>
<path d="M7.89664 23.0216C7.88328 22.9815 7.87651 22.9481 7.85656 22.9146C7.8432 22.8811 7.8164 22.8477 7.783 22.8143C7.74292 22.7743 7.69607 22.7408 7.64264 22.7207C7.58911 22.7007 7.5289 22.6873 7.46211 22.6873C7.38854 22.6873 7.32834 22.7006 7.2749 22.7207C7.22146 22.7408 7.17462 22.7743 7.13454 22.8143C7.10114 22.8477 7.07433 22.8812 7.06097 22.9146C7.04085 22.9481 7.03417 22.9815 7.0209 23.0216C7.01422 23.0618 7.01422 23.1086 7.00754 23.1554V23.4696C7.01422 23.5163 7.01422 23.5565 7.0209 23.5967C7.03426 23.6367 7.04094 23.6769 7.06097 23.7103C7.07433 23.7371 7.10105 23.7705 7.13454 23.8039C7.17462 23.8441 7.22146 23.8775 7.2749 23.8975C7.32843 23.9243 7.38863 23.931 7.46211 23.931C7.52899 23.931 7.5892 23.9243 7.64264 23.8975C7.69607 23.8775 7.74292 23.8441 7.783 23.8039C7.8164 23.7705 7.8432 23.737 7.85656 23.7103C7.8766 23.6769 7.88328 23.6367 7.89664 23.5967C7.90332 23.5565 7.91 23.5163 7.91 23.4696V23.1554C7.91 23.1085 7.90332 23.0618 7.89664 23.0216ZM7.66927 23.4563C7.66927 23.4964 7.66259 23.5231 7.65591 23.5498C7.65591 23.5766 7.64923 23.5967 7.64255 23.61C7.63587 23.6234 7.62242 23.6367 7.60906 23.6501C7.5957 23.6702 7.57566 23.6902 7.54894 23.6969C7.52223 23.7102 7.49542 23.7169 7.46202 23.7169C7.42862 23.7169 7.39522 23.7102 7.36842 23.6969C7.34838 23.6902 7.32157 23.6701 7.30162 23.6501C7.29494 23.6367 7.28149 23.6234 7.27481 23.61C7.26813 23.5967 7.26145 23.5765 7.26145 23.5498C7.25477 23.523 7.24809 23.4964 7.24809 23.4563V23.162C7.24809 23.1286 7.25477 23.0952 7.26145 23.0684C7.26145 23.0416 7.26813 23.0216 7.27481 23.0083C7.28149 22.995 7.29485 22.9815 7.30162 22.9682C7.32166 22.9481 7.34847 22.9348 7.36842 22.9214C7.39522 22.908 7.42862 22.9014 7.46202 22.9014C7.49542 22.9014 7.52223 22.908 7.54894 22.9214C7.57566 22.9348 7.59579 22.9482 7.60906 22.9682C7.62242 22.9815 7.63587 22.995 7.64255 23.0083C7.64923 23.0216 7.65591 23.0417 7.65591 23.0684C7.66259 23.0952 7.66927 23.1286 7.66927 23.162V23.4563Z" fill="#CECECF"/>
<path d="M9.04671 22.9347C9.03335 22.8879 9.00663 22.8477 8.96646 22.8143C8.93307 22.7742 8.8929 22.7475 8.83946 22.7274C8.79262 22.7072 8.7325 22.7006 8.67229 22.7006H8.19751V23.9243H8.43824V23.4629H8.67221C8.73241 23.4629 8.79253 23.4496 8.83938 23.4294C8.8929 23.4093 8.93298 23.3826 8.96638 23.3491C9.00654 23.3157 9.03326 23.2756 9.04662 23.2288C9.06675 23.1819 9.07334 23.1286 9.07334 23.0817C9.07343 23.0283 9.06684 22.9815 9.04671 22.9347ZM8.79262 23.2022C8.75922 23.229 8.71237 23.249 8.65885 23.249H8.43824V22.9147H8.65885C8.71237 22.9147 8.75913 22.928 8.79262 22.9548C8.81934 22.9882 8.83946 23.0283 8.83946 23.0818C8.83946 23.1287 8.81934 23.1688 8.79262 23.2022Z" fill="#CECECF"/>
<path d="M10.1233 22.9147V22.7007H9.32092V23.9244H10.1233V23.7104H9.56166V23.4095H10.043V23.1955H9.56166V22.9147H10.1233Z" fill="#CECECF"/>
<path d="M10.9524 23.6703C10.919 23.7037 10.8721 23.7171 10.812 23.7171C10.7786 23.7171 10.7518 23.7104 10.7251 23.7037C10.6984 23.6904 10.6782 23.677 10.6582 23.657C10.6515 23.6436 10.6381 23.6302 10.6315 23.6102C10.6248 23.5969 10.6181 23.5767 10.6114 23.55C10.6114 23.5232 10.6047 23.4966 10.6047 23.4565C10.6047 23.4163 10.5981 23.3695 10.5981 23.3094C10.5981 23.2492 10.6047 23.2024 10.6047 23.1623C10.6047 23.1289 10.6114 23.0954 10.6114 23.0687C10.6181 23.0419 10.6248 23.0219 10.6315 23.0086C10.6381 22.9952 10.6515 22.9751 10.6582 22.9684C10.6782 22.9484 10.6984 22.9284 10.7251 22.9217C10.7518 22.9083 10.7786 22.9016 10.812 22.9016C10.8721 22.9016 10.919 22.915 10.9524 22.9485C10.9858 22.9819 11.0059 23.022 11.0192 23.0755H11.26C11.2399 22.9485 11.1864 22.8481 11.1062 22.788C11.0259 22.721 10.9256 22.6876 10.812 22.6876C10.7451 22.6876 10.6782 22.701 10.6248 22.7211C10.5779 22.7411 10.5245 22.7746 10.4844 22.8147C10.4576 22.8481 10.4309 22.8816 10.4109 22.915C10.3975 22.9485 10.3841 22.9819 10.3775 23.022C10.3708 23.0621 10.3641 23.109 10.3641 23.1557V23.4699C10.3641 23.5167 10.3708 23.5569 10.3775 23.597C10.3841 23.6371 10.3976 23.6773 10.4109 23.7107C10.431 23.7375 10.4577 23.7709 10.4844 23.8043C10.5245 23.8444 10.578 23.8778 10.6248 23.8979C10.6783 23.9247 10.7451 23.9314 10.812 23.9314C10.9256 23.9314 11.026 23.8979 11.1062 23.8378C11.1864 23.7709 11.2399 23.6773 11.26 23.5435H11.0192C11.0059 23.5968 10.9858 23.6368 10.9524 23.6703Z" fill="#CECECF"/>
<path d="M12.3699 23.1554C12.3699 23.1086 12.3632 23.0618 12.3566 23.0216C12.3499 22.9815 12.3364 22.9481 12.3165 22.9146C12.3031 22.8811 12.2764 22.8477 12.2496 22.8143C12.2095 22.7743 12.1627 22.7408 12.1092 22.7207C12.0557 22.7007 11.9955 22.6873 11.922 22.6873C11.8485 22.6873 11.7883 22.7006 11.7348 22.7207C11.6813 22.7408 11.6345 22.7743 11.5944 22.8143C11.561 22.8477 11.5409 22.8812 11.5208 22.9146C11.5075 22.9481 11.494 22.9815 11.4874 23.0216C11.4807 23.0618 11.4741 23.1086 11.4741 23.1554C11.4741 23.2021 11.4674 23.249 11.4674 23.3092C11.4674 23.3693 11.4741 23.4229 11.4741 23.4697C11.4741 23.5164 11.4807 23.5566 11.4874 23.5967C11.4941 23.6368 11.5075 23.677 11.5208 23.7104C11.5409 23.7372 11.5609 23.7706 11.5944 23.804C11.6345 23.8442 11.6813 23.8776 11.7348 23.8976C11.7883 23.9244 11.8485 23.9311 11.922 23.9311C11.9956 23.9311 12.0558 23.9244 12.1092 23.8976C12.1627 23.8776 12.2095 23.8442 12.2496 23.804C12.2764 23.7706 12.3031 23.7371 12.3165 23.7104C12.3365 23.677 12.3499 23.6368 12.3566 23.5967C12.3632 23.5566 12.3699 23.5164 12.3699 23.4697C12.3699 23.4229 12.3766 23.3694 12.3766 23.3092C12.3766 23.249 12.3699 23.2021 12.3699 23.1554ZM12.1292 23.4563C12.1292 23.4964 12.1225 23.5231 12.1225 23.5498C12.1158 23.5766 12.1092 23.5967 12.1025 23.61C12.0958 23.6234 12.0891 23.6367 12.0758 23.6501C12.0556 23.6702 12.0357 23.6902 12.0089 23.6969C11.9822 23.7102 11.9553 23.7169 11.9219 23.7169C11.8885 23.7169 11.8618 23.7102 11.835 23.6969C11.8083 23.6902 11.7882 23.6701 11.7681 23.6501C11.7548 23.6367 11.7481 23.6234 11.7414 23.61C11.7281 23.5967 11.7281 23.5765 11.7213 23.5498C11.7146 23.523 11.7146 23.4964 11.7079 23.4563V23.162C11.7146 23.1286 11.7146 23.0952 11.7213 23.0684C11.728 23.0416 11.728 23.0216 11.7414 23.0083C11.7481 22.995 11.7548 22.9815 11.7681 22.9682C11.7882 22.9481 11.8082 22.9348 11.835 22.9214C11.8618 22.908 11.8885 22.9014 11.9219 22.9014C11.9553 22.9014 11.9822 22.908 12.0089 22.9214C12.0357 22.9348 12.0557 22.9482 12.0758 22.9682C12.0891 22.9815 12.0958 22.995 12.1025 23.0083C12.1092 23.0216 12.1158 23.0417 12.1225 23.0684C12.1225 23.0952 12.1292 23.1286 12.1292 23.162C12.1359 23.2021 12.1359 23.249 12.1359 23.3091C12.1359 23.3693 12.1359 23.4161 12.1292 23.4563Z" fill="#CECECF"/>
<path d="M13.3595 22.7007V23.4496L12.8714 22.7007H12.6574V23.9244H12.8981V23.1688L13.3862 23.9244H13.6001V22.7007H13.3595Z" fill="#CECECF"/>
<path d="M15.2385 23.4563C15.2251 23.4228 15.2051 23.3893 15.1783 23.3626C15.1649 23.3493 15.1516 23.3359 15.1382 23.3292C15.1248 23.3159 15.1115 23.3092 15.0848 23.2958C15.185 23.2356 15.2386 23.1554 15.2386 23.035C15.2386 22.9815 15.2252 22.9347 15.2118 22.8946C15.1918 22.8544 15.165 22.821 15.1316 22.7877C15.1049 22.7676 15.0848 22.7542 15.0514 22.7409C15.0447 22.7342 15.0313 22.7275 15.018 22.7208C14.9644 22.7075 14.9177 22.7008 14.8575 22.7008H14.3694V23.9245H14.8776C14.9377 23.9245 14.9912 23.9111 15.0314 23.8977C15.0783 23.8777 15.1183 23.8575 15.1517 23.8241C15.1851 23.7974 15.2119 23.7573 15.2253 23.7172C15.2453 23.6771 15.2521 23.6237 15.2521 23.5701C15.2518 23.5298 15.2452 23.4896 15.2385 23.4563ZM14.6032 22.9146H14.8373C14.8506 22.9146 14.8641 22.9146 14.8707 22.9213C14.9108 22.9213 14.9309 22.928 14.9577 22.9481C14.9844 22.9748 14.9977 23.0083 14.9977 23.0551C14.9977 23.0953 14.9844 23.1287 14.9577 23.1554C14.9242 23.1821 14.8908 23.1955 14.8373 23.1955H14.6032V22.9146ZM14.971 23.6702C14.9443 23.697 14.9041 23.7103 14.8574 23.7103H14.6033V23.4095H14.8574C14.9042 23.4095 14.9443 23.4228 14.971 23.4496C14.9978 23.4764 15.0179 23.5098 15.0179 23.5566C15.0178 23.6034 14.9977 23.6434 14.971 23.6702Z" fill="#CECECF"/>
<path d="M16.0408 22.7007H15.8536L15.4056 23.9244H15.653L15.7266 23.7037H16.1612L16.2347 23.9244H16.4822L16.0408 22.7007ZM15.7934 23.5031L15.9538 23.0618L16.101 23.5031H15.7934Z" fill="#CECECF"/>
<path d="M17.3781 22.7007V23.4496L16.89 22.7007H16.6827V23.9244H16.9168V23.1688L17.4049 23.9244H17.6189V22.7007H17.3781Z" fill="#CECECF"/>
<path d="M18.5014 23.1821L18.9026 22.7007H18.6151L18.1805 23.2289V22.7007H17.9464V23.9244H18.1805V23.5566L18.341 23.3626L18.6552 23.9243H18.936L18.5014 23.1821Z" fill="#CECECF"/>
<path d="M31.2725 15.0378C31.2391 15.0713 31.1923 15.0847 31.1322 15.0847C31.0987 15.0847 31.072 15.078 31.0453 15.0646C31.0185 15.0579 30.9984 15.0378 30.9784 15.0244C30.9717 15.011 30.9583 14.9976 30.9517 14.9776C30.945 14.9643 30.9383 14.9442 30.9316 14.9175C30.9316 14.8907 30.9249 14.8573 30.9249 14.8238C30.9249 14.7838 30.9183 14.737 30.9183 14.6768C30.9183 14.6166 30.9249 14.5698 30.9249 14.5297C30.9249 14.4895 30.9316 14.4628 30.9316 14.4361C30.9383 14.4093 30.945 14.3893 30.9517 14.3759C30.9583 14.3559 30.9717 14.3425 30.9784 14.3291C30.9984 14.3091 31.0185 14.2957 31.0453 14.2823C31.072 14.2757 31.0987 14.2691 31.1322 14.2691C31.1923 14.2691 31.2391 14.2823 31.2725 14.3158C31.3059 14.3492 31.3261 14.3894 31.3394 14.4428H31.5802C31.56 14.3091 31.5066 14.2155 31.4264 14.1487C31.3461 14.0885 31.2458 14.0551 31.1322 14.0551C31.0653 14.0551 30.9984 14.0684 30.9517 14.0885C30.8981 14.1086 30.8514 14.142 30.8045 14.1821C30.7778 14.2155 30.7511 14.2489 30.7376 14.2823C30.7176 14.3091 30.7042 14.3491 30.6976 14.3893C30.6909 14.4295 30.6842 14.4695 30.6842 14.5163V14.8373C30.6842 14.8841 30.6909 14.9243 30.6976 14.9644C30.7042 15.0044 30.7176 15.0379 30.7376 15.0713C30.751 15.1048 30.7778 15.1382 30.8045 15.1715C30.8514 15.2117 30.8981 15.2452 30.9517 15.2652C30.9985 15.2853 31.0653 15.2986 31.1322 15.2986C31.2458 15.2986 31.3461 15.2652 31.4264 15.1983C31.5066 15.1382 31.56 15.0378 31.5802 14.9108H31.3394C31.3261 14.9643 31.3059 15.0044 31.2725 15.0378Z" fill="#CECECF"/>
<path d="M32.4828 14.7571C32.5162 14.7504 32.543 14.737 32.5697 14.717C32.5965 14.6968 32.6233 14.6768 32.6433 14.6501C32.6633 14.6233 32.6768 14.59 32.6901 14.5565C32.6968 14.5363 32.7035 14.5096 32.7035 14.4829C32.7102 14.4695 32.7102 14.4494 32.7102 14.4361C32.7102 14.3893 32.6968 14.3358 32.6834 14.2957C32.6633 14.2489 32.6366 14.2088 32.6031 14.1753C32.5697 14.1419 32.5296 14.1152 32.4761 14.0951C32.4494 14.0818 32.4294 14.075 32.3959 14.0683H32.3892C32.3625 14.0616 32.3358 14.0616 32.309 14.0616H31.8343V15.2853H32.0683V14.7972H32.2422L32.4829 15.2853H32.757L32.4828 14.7571ZM32.4227 14.5565C32.3892 14.5833 32.3491 14.6033 32.2957 14.6033H32.0683V14.2756H32.2957C32.3491 14.2756 32.3893 14.2889 32.4227 14.3223C32.4561 14.3491 32.4695 14.3893 32.4695 14.4361C32.4694 14.4896 32.4561 14.5231 32.4227 14.5565Z" fill="#CECECF"/>
<path d="M33.8068 14.2757V14.0618H32.9977V15.2854H33.8068V15.0715H33.2384V14.7772H33.7199V14.5633H33.2384V14.2757H33.8068Z" fill="#CECECF"/>
<path d="M34.9636 14.4562C34.9636 14.4429 34.9569 14.4295 34.9569 14.4228C34.9569 14.3893 34.9435 14.3559 34.9368 14.3291C34.9235 14.2957 34.91 14.269 34.89 14.2423C34.8499 14.1821 34.7964 14.1353 34.7362 14.1085C34.6761 14.0818 34.6092 14.0618 34.5222 14.0618H34.0809V15.2854H34.5222C34.6091 15.2854 34.676 15.2721 34.7362 15.2453C34.7697 15.2319 34.7964 15.2118 34.8231 15.1918C34.8499 15.1717 34.87 15.145 34.89 15.1115C34.91 15.0848 34.9234 15.0581 34.9368 15.0246C34.9435 14.9978 34.9569 14.9645 34.9569 14.9311C34.9636 14.8976 34.9636 14.8574 34.9702 14.8174V14.5365C34.9636 14.5097 34.9636 14.483 34.9636 14.4562ZM34.7295 14.8039C34.7295 14.8373 34.7228 14.864 34.7228 14.8908C34.7161 14.9176 34.7161 14.9377 34.7095 14.951C34.7028 14.971 34.6893 14.9844 34.6827 14.9977C34.6427 15.0512 34.5825 15.0714 34.5022 15.0714H34.3217V14.2756H34.5022C34.5825 14.2756 34.6427 14.3024 34.6827 14.3559C34.6894 14.3692 34.7028 14.3827 34.7095 14.4027C34.7161 14.4161 34.7161 14.4362 34.7228 14.4628C34.7228 14.4895 34.7295 14.5163 34.7295 14.5497V14.8039Z" fill="#CECECF"/>
<path d="M35.2577 14.0618V15.2854H35.4917V14.0618H35.2577Z" fill="#CECECF"/>
<path d="M35.7325 14.0618V14.2757H36.0535V15.2854H36.2875V14.2757H36.6085V14.0618H35.7325Z" fill="#CECECF"/>
<path d="M37.8388 15.0378C37.8054 15.0713 37.7585 15.0847 37.6983 15.0847C37.6649 15.0847 37.6382 15.078 37.6114 15.0646C37.5846 15.0579 37.5645 15.0378 37.5445 15.0244C37.5378 15.011 37.5245 14.9976 37.5178 14.9776C37.5111 14.9643 37.5044 14.9442 37.4978 14.9175C37.4978 14.8907 37.4911 14.8573 37.4911 14.8238C37.4844 14.7838 37.4844 14.737 37.4844 14.6768C37.4844 14.6166 37.4844 14.5698 37.4911 14.5297C37.4911 14.4895 37.4978 14.4628 37.4978 14.4361C37.5044 14.4093 37.5111 14.3893 37.5178 14.3759C37.5245 14.3559 37.5378 14.3425 37.5445 14.3291C37.5645 14.3091 37.5846 14.2957 37.6114 14.2823C37.6381 14.2757 37.6648 14.2691 37.6983 14.2691C37.7585 14.2691 37.8053 14.2823 37.8388 14.3158C37.8722 14.3492 37.8923 14.3894 37.9057 14.4428H38.1464C38.1263 14.3091 38.0728 14.2155 37.9926 14.1487C37.9123 14.0885 37.812 14.0551 37.6984 14.0551C37.6315 14.0551 37.5647 14.0684 37.5112 14.0885C37.4644 14.1086 37.4109 14.142 37.3708 14.1821C37.3374 14.2155 37.3173 14.2489 37.2972 14.2823C37.2838 14.3091 37.2705 14.3491 37.2638 14.3893C37.2571 14.4295 37.2504 14.4695 37.2504 14.5163V14.8373C37.2504 14.8841 37.2571 14.9243 37.2638 14.9644C37.2705 15.0044 37.2838 15.0379 37.2972 15.0713C37.3172 15.1048 37.3373 15.1382 37.3708 15.1715C37.4108 15.2117 37.4644 15.2452 37.5112 15.2652C37.5647 15.2853 37.6315 15.2986 37.6984 15.2986C37.8121 15.2986 37.9124 15.2652 37.9926 15.1983C38.0728 15.1382 38.1263 15.0378 38.1464 14.9108H37.9057C37.8923 14.9643 37.8722 15.0044 37.8388 15.0378Z" fill="#CECECF"/>
<path d="M38.8952 14.0618H38.708L38.26 15.2854H38.5141L38.5877 15.0715H39.0223L39.0959 15.2854H39.3433L38.8952 14.0618ZM38.6546 14.8708L38.8084 14.4228L38.9554 14.8708H38.6546Z" fill="#CECECF"/>
<path d="M40.1857 14.7571C40.2191 14.7504 40.2458 14.737 40.2726 14.717C40.2994 14.6968 40.3262 14.6768 40.3462 14.6501C40.3662 14.6233 40.3796 14.59 40.393 14.5565C40.4064 14.523 40.4131 14.4829 40.4131 14.4361C40.4131 14.3893 40.4064 14.3358 40.3864 14.2957C40.3663 14.2489 40.3395 14.2088 40.3061 14.1753C40.2727 14.1419 40.2326 14.1152 40.1791 14.0951C40.1323 14.075 40.0788 14.0616 40.0186 14.0616H39.5372V15.2853H39.7779V14.7972H39.9451L40.1858 15.2853H40.4599L40.1857 14.7571ZM40.1255 14.5565C40.0921 14.5833 40.0519 14.6033 39.9985 14.6033H39.7779V14.2756H39.9985C40.052 14.2756 40.0921 14.2889 40.1255 14.3223C40.159 14.3491 40.1724 14.3893 40.1724 14.4361C40.1724 14.4896 40.159 14.5231 40.1255 14.5565Z" fill="#CECECF"/>
<path d="M41.5832 14.4228C41.5765 14.3893 41.5698 14.3559 41.5564 14.3291C41.5498 14.2957 41.5297 14.269 41.5164 14.2423C41.4695 14.1821 41.4161 14.1353 41.3559 14.1085C41.3024 14.0818 41.2289 14.0618 41.142 14.0618H40.7007V15.2854H41.142C41.2289 15.2854 41.3024 15.2721 41.3559 15.2453C41.416 15.2185 41.4695 15.1717 41.5164 15.1115C41.5297 15.0848 41.5498 15.0581 41.5564 15.0246C41.5698 14.9978 41.5765 14.9645 41.5832 14.9311C41.5832 14.8976 41.5898 14.8574 41.5898 14.8174V14.5365C41.5898 14.4963 41.5832 14.4562 41.5832 14.4228ZM41.3492 14.8039C41.3492 14.8373 41.3492 14.864 41.3425 14.8908C41.3425 14.9176 41.3358 14.9377 41.3292 14.951C41.3225 14.971 41.3158 14.9844 41.3024 14.9977C41.2623 15.0512 41.2021 15.0714 41.1218 15.0714H40.9413V14.2756H41.1218C41.2021 14.2756 41.2622 14.3024 41.3024 14.3559C41.3157 14.3692 41.3224 14.3827 41.3292 14.4027C41.3358 14.4161 41.3425 14.4362 41.3425 14.4628C41.3492 14.4895 41.3492 14.5163 41.3492 14.5497V14.8039Z" fill="#CECECF"/>
<path d="M41.7148 2.98115V7.69375C41.7148 7.88342 41.5597 8.03855 41.37 8.03855H35.5654C35.3758 8.03855 35.2206 7.88342 35.2206 7.69375V2.98115C35.2206 2.79148 35.3758 2.63635 35.5654 2.63635H41.37C41.5596 2.63626 41.7148 2.79148 41.7148 2.98115Z" fill="#F7D072"/>
<path opacity="0.2" d="M40.4398 3.77788L41.4495 2.76819H41.1218L40.2526 3.64411L40.1189 3.77788L40.0186 3.87148L39.3299 4.56019H37.8322L37.6984 4.42642L37.1435 3.87148L36.9228 3.64411L36.0469 2.76819H35.7192L36.5884 3.64411L36.7222 3.77788H35.3381V4.00516H36.9562L37.3841 4.43978L37.4977 4.56019V4.82755H35.338V5.06161H37.4977V5.884H35.338V6.11128H37.4977V6.38542H37.5111L37.0898 6.80008L36.9561 6.93385H35.338V7.16791H36.7221L35.8529 8.03714H36.1805L37.0498 7.16791L37.8321 6.38568H39.3298L40.9881 8.03723H41.309L40.4398 7.16799H41.7168V6.93394H40.2124L39.6642 6.38568V6.11155H41.7169V5.88426H39.6642V5.06187H41.7169V4.82782H39.6642V4.56045L40.2124 4.00543H41.7168V3.77814H40.4398V3.77788ZM39.4369 6.15154H37.7251V4.78756H39.4369V6.15154Z" fill="white"/>
<path d="M37.7184 4.42639L37.9458 4.65368H38.9889L39.0825 4.56016L39.2162 4.42639H37.7184ZM37.7184 4.42639L37.9458 4.65368H38.9889L39.0825 4.56016L39.2162 4.42639H37.7184ZM37.7184 4.42639L37.9458 4.65368H38.9889L39.0825 4.56016L39.2162 4.42639H37.7184ZM37.7184 4.42639L37.9458 4.65368H38.9889L39.0825 4.56016L39.2162 4.42639H37.7184ZM39.1225 6.15151L38.9889 6.01783H37.9458L37.8188 6.15151H37.8121L37.7185 6.25179H39.2162L39.1225 6.15151ZM37.7184 4.42639L37.9458 4.65368H38.9889L39.0825 4.56016L39.2162 4.42639H37.7184ZM37.3841 4.42639V6.25179H39.5505V4.42639H37.3841ZM39.3231 6.01783H37.6113V4.65376H39.3231V6.01783ZM37.7184 4.42639L37.9458 4.65368H38.9889L39.0825 4.56016L39.2162 4.42639H37.7184ZM37.7184 4.42639L37.9458 4.65368H38.9889L39.0825 4.56016L39.2162 4.42639H37.7184ZM37.7184 4.42639L37.9458 4.65368H38.9889L39.0825 4.56016L39.2162 4.42639H37.7184ZM37.7184 4.42639L37.9458 4.65368H38.9889L39.0825 4.56016L39.2162 4.42639H37.7184ZM37.7184 4.42639L37.9458 4.65368H38.9889L39.0825 4.56016L39.2162 4.42639H37.7184ZM37.7184 4.42639L37.9458 4.65368H38.9889L39.0825 4.56016L39.2162 4.42639H37.7184Z" fill="#717070"/>
<path d="M36.9346 3.64185L37.1645 3.87177H35.2206V3.64185H36.9346Z" fill="#717070"/>
<path d="M41.7149 3.64185V3.87177H39.7709L40.0007 3.64185H41.7149Z" fill="#717070"/>
<path d="M37.6128 4.69556H35.2206V4.92548H37.6128V4.69556Z" fill="#717070"/>
<path d="M41.7147 4.69556H39.3225V4.92548H41.7147V4.69556Z" fill="#717070"/>
<path d="M37.6128 5.74939H35.2206V5.97931H37.6128V5.74939Z" fill="#717070"/>
<path d="M41.7147 5.74939H39.3225V5.97931H41.7147V5.74939Z" fill="#717070"/>
<path d="M37.1648 6.80261L36.9349 7.03253H35.2206V6.80261H37.1648Z" fill="#717070"/>
<path d="M41.7148 6.80261V7.03253H40.0004L39.7706 6.80261H41.7148Z" fill="#717070"/>
<path d="M37.9478 6.01965L35.9291 8.03833H35.6042L37.6229 6.01965H37.9478Z" fill="#717070"/>
<path d="M41.3315 2.63611L39.3128 4.65478H38.9879L41.0065 2.63611H41.3315Z" fill="#717070"/>
<path d="M37.9476 4.65478H37.6226L35.6039 2.63611H35.9289L37.9476 4.65478Z" fill="#717070"/>
<path d="M41.3312 8.03833H41.0062L39.2174 6.24958L39.1217 6.15386L38.9875 6.01965H39.3125L39.4375 6.14463L39.5425 6.24958L39.6674 6.37456L40.0956 6.80267L40.2298 6.93688L40.3255 7.03259L40.4597 7.1668L41.3312 8.03833Z" fill="#717070"/>
<path d="M6.945 4.69547C6.945 3.976 7.24172 3.32613 7.71896 2.86049C7.25683 2.40961 6.62543 2.13135 5.92881 2.13135C4.51262 2.13135 3.36469 3.27938 3.36469 4.69547C3.36469 6.11165 4.51271 7.25959 5.92881 7.25959C6.62552 7.25959 7.25692 6.98133 7.71896 6.53045C7.24172 6.06489 6.945 5.41494 6.945 4.69547Z" fill="#DC3B39"/>
<path d="M9.50915 2.13135C8.81244 2.13135 8.18112 2.40961 7.71899 2.86049C8.19624 3.32613 8.49296 3.976 8.49296 4.69547C8.49296 5.41494 8.19624 6.06481 7.71899 6.53045C8.18112 6.98133 8.81253 7.25959 9.50915 7.25959C10.9253 7.25959 12.0733 6.11156 12.0733 4.69547C12.0733 3.27938 10.9252 2.13135 9.50915 2.13135Z" fill="#E6AB2D"/>
<path d="M8.49297 4.69558C8.49297 3.9761 8.19625 3.32624 7.719 2.8606C7.24176 3.32624 6.94504 3.9761 6.94504 4.69558C6.94504 5.41505 7.24176 6.06491 7.719 6.53056C8.19625 6.065 8.49297 5.41505 8.49297 4.69558Z" fill="#D67261"/>
<path d="M8.49287 4.69541C8.49287 4.64127 8.49068 4.58766 8.48734 4.53431L7.31769 3.36475C7.232 3.50546 7.15931 3.65496 7.10165 3.81185L8.4499 5.16009C8.47758 5.00927 8.49287 4.85423 8.49287 4.69541Z" fill="#E6AB2D"/>
<path d="M6.97108 4.33264C6.95429 4.45121 6.94498 4.57223 6.94498 4.69537C6.94498 4.7938 6.95104 4.89083 6.96185 4.98637L8.07393 6.09845C8.1634 5.96213 8.24013 5.81685 8.30262 5.6641L6.97108 4.33264Z" fill="#E6AB2D"/>
<path opacity="0.2" d="M45 16.3551H0V16.9168H45V16.3551Z" fill="#040000"/>
<path opacity="0.2" d="M45 1.43095V29.1398C45 29.9288 44.3514 30.5773 43.5624 30.5773H7.21469L14.3693 23.4228L14.6032 23.1888L14.8707 22.9214L15.0512 22.7409L18.7756 19.0165L18.9694 18.8226V18.8159L19.0964 18.6955L19.1098 18.6821L19.6782 18.1071L19.8587 17.9333L20.8751 16.9169L21.4368 16.3552L27.4479 10.3441L29.3803 8.41184L37.6715 0.113818L37.7852 0H43.5624C44.3514 0 45 0.641865 45 1.43095Z" fill="#040000"/>
<defs>
<linearGradient id="paint0_linear_135_830" x1="22.5" y1="0.113621" x2="22.5" y2="30.691" gradientUnits="userSpaceOnUse">
<stop stop-color="#44484A"/>
<stop offset="1" stop-color="#193741"/>
</linearGradient>
</defs>
</svg>
