<svg width="75" height="19" viewBox="0 0 75 19" fill="none" xmlns="http://www.w3.org/2000/svg">
<path d="M13.6837 1.43003C12.8056 0.429123 11.2182 1.08453e-05 9.18752 1.08453e-05H3.29382C3.09279 -9.61607e-05 2.89833 0.0715472 2.74543 0.202046C2.59252 0.332545 2.49121 0.51333 2.45973 0.711872L0.00676992 16.2768C-0.00460408 16.349 -0.000189429 16.4228 0.01971 16.4932C0.0396094 16.5635 0.0745205 16.6287 0.122038 16.6842C0.169555 16.7398 0.228549 16.7844 0.294956 16.8149C0.361362 16.8455 0.433602 16.8613 0.506699 16.8612H4.14522L5.05904 11.0651L5.03072 11.2466C5.0616 11.0484 5.16223 10.8678 5.31448 10.7373C5.46673 10.6068 5.6606 10.535 5.86113 10.5347H7.59016C10.9868 10.5347 13.6465 9.15506 14.4234 5.16402C14.4465 5.04599 14.4664 4.93111 14.4837 4.81885C14.7145 3.34371 14.4822 2.33966 13.6843 1.43055" fill="#003087"/>
<path d="M58.2272 8.83669C58.0047 10.2971 56.8895 10.2971 55.8109 10.2971H55.1972L55.6279 7.57035C55.6541 7.40563 55.7957 7.28445 55.9625 7.28445H56.2442C56.9787 7.28445 57.6722 7.28445 58.0299 7.70254C58.2434 7.95277 58.308 8.32417 58.2272 8.83669ZM57.7577 5.02611H53.689C53.5542 5.02618 53.4239 5.07427 53.3214 5.16176C53.2189 5.24925 53.151 5.37041 53.1298 5.50348L51.4857 15.9359C51.4782 15.9843 51.4812 16.0337 51.4945 16.0808C51.5078 16.1279 51.5312 16.1716 51.563 16.2088C51.5948 16.246 51.6342 16.2759 51.6787 16.2964C51.7231 16.317 51.7715 16.3277 51.8204 16.3278H53.9083C54.1029 16.3278 54.2687 16.1861 54.2991 15.9941L54.766 13.0355C54.809 12.7611 55.0461 12.5581 55.3241 12.5581H56.6115C59.2921 12.5581 60.8386 11.2618 61.2425 8.69086C61.4245 7.5672 61.2498 6.6838 60.7237 6.06531C60.1451 5.38545 59.1195 5.02559 57.7582 5.02559" fill="#009CDE"/>
<path d="M29.2071 8.8367C28.9847 10.2971 27.8694 10.2971 26.7904 10.2971H26.1766L26.6073 7.57036C26.6335 7.40564 26.7751 7.28446 26.942 7.28446H27.2237C27.9581 7.28446 28.6516 7.28446 29.0094 7.70255C29.2234 7.95278 29.2879 8.32419 29.2071 8.8367ZM28.7376 5.02612H24.6689C24.3909 5.02612 24.1538 5.22861 24.1103 5.5035L22.4657 15.9359C22.458 15.9843 22.4609 16.0337 22.4742 16.0809C22.4875 16.128 22.5109 16.1717 22.5427 16.209C22.5745 16.2462 22.614 16.2761 22.6585 16.2966C22.703 16.3171 22.7514 16.3278 22.8004 16.3278H24.7434C25.0215 16.3278 25.258 16.1253 25.3016 15.8504L25.7459 13.036C25.7889 12.7611 26.026 12.5586 26.3041 12.5586H27.5914C30.272 12.5586 31.8185 11.2619 32.2224 8.69087C32.4045 7.56721 32.2298 6.68381 31.7036 6.06532C31.125 5.38546 30.0994 5.0256 28.7381 5.0256M38.1838 12.5822C37.995 13.6954 37.1121 14.4429 35.9848 14.4429C35.4198 14.4429 34.9671 14.2609 34.6764 13.9168C34.3879 13.5758 34.2799 13.0895 34.3711 12.5487C34.5463 11.4449 35.4444 10.6738 36.5544 10.6738C37.1079 10.6738 37.5564 10.8574 37.8533 11.2047C38.1518 11.5546 38.2693 12.0435 38.1838 12.5822ZM40.8991 8.78949H38.9508C38.8698 8.7894 38.7914 8.81827 38.7298 8.87089C38.6683 8.92351 38.6275 8.99642 38.615 9.07644L38.53 9.62096L38.3936 9.42372C37.9719 8.81153 37.0313 8.60641 36.0923 8.60641C33.9399 8.60641 32.1013 10.2379 31.7435 12.5251C31.5573 13.6671 31.8216 14.7577 32.469 15.5189C33.0633 16.2181 33.9116 16.5093 34.9225 16.5093C36.6578 16.5093 37.6199 15.3951 37.6199 15.3951L37.5328 15.9364C37.5251 15.9849 37.5281 16.0344 37.5414 16.0815C37.5547 16.1287 37.5781 16.1724 37.61 16.2097C37.6419 16.247 37.6814 16.2769 37.726 16.2973C37.7705 16.3178 37.819 16.3284 37.868 16.3283H39.6222C39.9002 16.3283 40.1374 16.1263 40.1809 15.8509L41.2343 9.18188C41.2418 9.13343 41.2388 9.08391 41.2254 9.03673C41.2121 8.98955 41.1886 8.94584 41.1567 8.9086C41.1248 8.87135 41.0852 8.84147 41.0406 8.821C40.996 8.80053 40.9476 8.78996 40.8985 8.79002" fill="#003087"/>
<path d="M67.2039 12.5822C67.015 13.6954 66.1322 14.4429 65.0048 14.4429C64.4399 14.4429 63.9871 14.2609 63.6965 13.9168C63.408 13.5758 63.2999 13.0895 63.3912 12.5487C63.5664 11.4449 64.464 10.6738 65.5745 10.6738C66.128 10.6738 66.5765 10.8574 66.8734 11.2047C67.1719 11.5546 67.2894 12.0435 67.2039 12.5822ZM69.9191 8.78949H67.9708C67.8898 8.7894 67.8115 8.81826 67.7499 8.87089C67.6883 8.92351 67.6476 8.99642 67.6351 9.07644L67.5501 9.62096L67.4137 9.42371C66.992 8.81152 66.0514 8.60641 65.1124 8.60641C62.9605 8.60641 61.1219 10.2379 60.7636 12.5251C60.5773 13.6671 60.8423 14.7577 61.4896 15.5189C62.0839 16.2181 62.9322 16.5093 63.9431 16.5093C65.6789 16.5093 66.641 15.3951 66.641 15.3951L66.5539 15.9364C66.5461 15.9848 66.5489 16.0343 66.5621 16.0815C66.5753 16.1286 66.5986 16.1724 66.6304 16.2097C66.6621 16.2469 66.7017 16.2769 66.7462 16.2974C66.7907 16.3178 66.8391 16.3284 66.8881 16.3283H68.6418C68.9198 16.3283 69.1569 16.1263 69.201 15.8509L70.2543 9.18188C70.2619 9.13343 70.2589 9.08391 70.2455 9.03673C70.2321 8.98955 70.2087 8.94584 70.1768 8.9086C70.1449 8.87135 70.1053 8.84147 70.0607 8.821C70.0161 8.80053 69.9677 8.78996 69.9186 8.79002" fill="#009CDE"/>
<path d="M51.276 8.79H49.3172C49.1299 8.79 48.9553 8.88285 48.8503 9.03813L46.1487 13.0166L45.0036 9.19341C44.9686 9.0768 44.897 8.97454 44.7994 8.90179C44.7018 8.82903 44.5834 8.78965 44.4617 8.78948H42.537C42.483 8.7895 42.4298 8.8024 42.3818 8.8271C42.3338 8.8518 42.2924 8.88758 42.261 8.93149C42.2296 8.97539 42.2092 9.02615 42.2013 9.07955C42.1935 9.13294 42.1985 9.18744 42.2159 9.23852L44.372 15.5682L42.3439 18.4298C42.3081 18.4806 42.2869 18.5402 42.2826 18.6022C42.2784 18.6643 42.2913 18.7263 42.3198 18.7815C42.3484 18.8367 42.3916 18.883 42.4447 18.9153C42.4978 18.9476 42.5587 18.9648 42.6209 18.9648H44.5776C44.7622 18.9648 44.9359 18.8741 45.0419 18.722L51.554 9.32246C51.5894 9.27165 51.6102 9.21212 51.6141 9.15035C51.618 9.08857 51.6049 9.0269 51.5763 8.97203C51.5476 8.91716 51.5045 8.87118 51.4516 8.83909C51.3986 8.807 51.3379 8.79003 51.276 8.79Z" fill="#003087"/>
<path d="M72.2154 5.31314L70.5451 15.9365C70.5376 15.9849 70.5406 16.0344 70.5539 16.0815C70.5673 16.1287 70.5907 16.1724 70.6225 16.2096C70.6544 16.2468 70.6939 16.2767 70.7384 16.2972C70.7829 16.3177 70.8313 16.3284 70.8803 16.3284H72.5595C72.8376 16.3284 73.0747 16.1259 73.1182 15.851L74.7649 5.41806C74.7726 5.36964 74.7696 5.32013 74.7563 5.27295C74.743 5.22577 74.7196 5.18204 74.6877 5.14479C74.6558 5.10754 74.6162 5.07764 74.5717 5.05716C74.5272 5.03669 74.4787 5.02612 74.4297 5.0262H72.5506C72.4697 5.02599 72.3914 5.05477 72.3299 5.10731C72.2685 5.15986 72.2278 5.23321 72.2154 5.31314Z" fill="#009CDE"/>
<path d="M13.6837 1.43003C12.8056 0.429123 11.2182 1.08453e-05 9.18752 1.08453e-05H3.29382C3.09279 -9.61607e-05 2.89833 0.0715472 2.74543 0.202046C2.59252 0.332545 2.49121 0.51333 2.45973 0.711872L0.00676992 16.2768C-0.00460408 16.349 -0.000189429 16.4228 0.01971 16.4932C0.0396094 16.5635 0.0745205 16.6287 0.122038 16.6842C0.169555 16.7398 0.228549 16.7844 0.294956 16.8149C0.361362 16.8455 0.433602 16.8613 0.506699 16.8612H4.14522L5.05904 11.0651L5.03072 11.2466C5.0616 11.0484 5.16223 10.8678 5.31448 10.7373C5.46673 10.6068 5.6606 10.535 5.86113 10.5347H7.59016C10.9868 10.5347 13.6465 9.15506 14.4234 5.16402C14.4465 5.04599 14.4664 4.93111 14.4837 4.81885C14.7145 3.34371 14.4822 2.33966 13.6843 1.43055" fill="#003087"/>
<path d="M6.04054 4.83829C6.06811 4.66481 6.15661 4.50683 6.29015 4.39271C6.42369 4.27859 6.59353 4.2158 6.76919 4.21561H11.3897C11.9369 4.21561 12.4473 4.25128 12.9136 4.32577C13.1686 4.36679 13.4209 4.4232 13.669 4.49469C13.9509 4.57392 14.2236 4.68258 14.4827 4.81888C14.7145 3.34323 14.4816 2.3397 13.6837 1.43007C12.8051 0.429684 11.2182 0.000573158 9.18752 0.000573158H3.29329C3.09245 0.0007159 2.89824 0.0724709 2.74555 0.202948C2.59286 0.333424 2.4917 0.514072 2.46025 0.712435L0.00624246 16.2758C-0.00520852 16.348 -0.000869298 16.4218 0.0189614 16.4922C0.0387921 16.5626 0.0736426 16.6278 0.121111 16.6834C0.16858 16.739 0.227539 16.7836 0.293924 16.8142C0.360309 16.8449 0.432542 16.8607 0.505647 16.8607H4.14469L5.05852 11.0641L6.04054 4.83829Z" fill="#003087"/>
<path d="M14.4831 4.81837C14.4651 4.93379 14.445 5.04887 14.4228 5.16355C13.6459 9.15406 10.9862 10.5342 7.58956 10.5342H5.86C5.65949 10.5344 5.46565 10.6062 5.31346 10.7368C5.16127 10.8673 5.06077 11.048 5.03011 11.2461L4.14461 16.8602L3.89281 18.4528C3.8828 18.5161 3.88661 18.5807 3.904 18.6423C3.92138 18.7039 3.95192 18.7611 3.99351 18.8097C4.0351 18.8584 4.08674 18.8975 4.14489 18.9242C4.20303 18.951 4.2663 18.9649 4.33031 18.9648H7.39756C7.76057 18.9648 8.06903 18.7005 8.12621 18.3422L8.15611 18.1858L8.7342 14.5221L8.77092 14.3196C8.79841 14.146 8.88695 13.9879 9.02062 13.8738C9.15429 13.7596 9.32431 13.6969 9.50009 13.697H9.9591C12.9304 13.697 15.2569 12.4904 15.9367 8.99879C16.22 7.54044 16.0731 6.32183 15.323 5.46624C15.0848 5.20097 14.8002 4.98142 14.4831 4.81837Z" fill="#009CDE"/>
<path d="M13.6695 4.49469C13.5509 4.45954 13.4287 4.42807 13.3028 4.40027C13.1769 4.37246 13.0468 4.34781 12.9136 4.32683C12.4467 4.25076 11.9368 4.21509 11.3891 4.21509H6.76912C6.59327 4.21487 6.42314 4.27759 6.2895 4.39189C6.15586 4.50619 6.06753 4.66453 6.04047 4.83829L5.05845 11.0651L5.03012 11.2461C5.06078 11.0479 5.16128 10.8673 5.31347 10.7367C5.46566 10.6062 5.65951 10.5344 5.86001 10.5342H7.58957C10.9863 10.5342 13.6459 9.15457 14.4228 5.16354C14.4459 5.0455 14.4653 4.93115 14.4831 4.81836C14.278 4.711 14.0642 4.62082 13.8442 4.54872C13.787 4.52984 13.7288 4.51253 13.6695 4.49469Z" fill="#012169"/>
</svg>
